ProbingGratsoenSans.sfdir
StartChar: H
Encoding: 72 72 5
Width: 550
VWidth: 1024
Flags: W
HStem: -127 58<110.246 331.297> -99 68<50 127.323> 345 57<114 246.943> 633 63<79 144.69> 669 57<126.918 317.945>
VStem: 363 63<486.957 625.583> 432 63<36.6932 247.869>
LayerCount: 2
Back
SplineSet
677 -13 m 7xdf
 677 -60.001953125 646.4140625 -107 584 -107 c 7
 517.875 -107 443 -72.3154296875 325 -2 c 4
 251.545898438 41.7705078125 149.784179688 71 78 71 c 7
 67.96875 71 59.5654296875 69 49 66 c 5
 38 66 l 5
 38 124 l 5
 51 127 65 128 78 128 c 7xbf
 167.584960938 128 270 97.525390625 359 46 c 4
 447 -4.9462890625 518.924804688 -49 579 -49 c 7
 602.598632812 -49 615 -32.9208984375 615 -13 c 7
 615 1.0234375 601.90625 12 588 12 c 7
 570 12 552 -12 549 -52 c 5
 485 -32 l 5
 498 35 538 68 591 68 c 7
 643.9609375 68 677 31.5869140625 677 -13 c 7xdf
EndSplineSet
Fore
SplineSet
114 402 m 1xa6
 296 408 363 477 363 557 c 0
 363 624 316 669 248 669 c 3xae
 175 669 144 658 99 633 c 1
 79 633 l 1
 79 696 l 1x36
 119 714 190 726 245 726 c 3
 349 726 426 678 426 563 c 0
 426 487 368 423 306 401 c 1
 306 396 l 1
 386.747070312 378.345703125 495 315.103515625 495 141 c 3
 495 -38.013671875 384 -127 231 -127 c 3xae
 168 -127 101 -117 50 -99 c 1
 50 -31 l 1
 70 -31 l 1x66
 120 -53 170 -69 241 -69 c 3
 346 -69 432 8.99609375 432 137 c 3
 432 313.025390625 318 350 226 350 c 0
 190.959960938 350 169.095703125 346.390625 126 345 c 1
 114 345 l 1
 114 402 l 1xa6
EndSplineSet
Substitution2: "low-1" H_1.low
EndChar
StartChar: a
Encoding: 97 97 48
Width: 300
VWidth: 1024
Flags: W
HStem: 209 78<112 188>
VStem: 112 76<209 287>
LayerCount: 2
Fore
SplineSet
188 209 m 1
 112 209 l 1
 112 287 l 1
 189 287 l 1
 188 209 l 1
EndSplineSet
EndChar
StartChar: b
Encoding: 98 98 10
Width: 570
VWidth: 1024
Flags: W
HStem: 118 57<150.401 302.064> 409 57<172.164 409.519> 669 57<216.274 366.372>
VStem: 46 63<214.889 353.535> 84 63<507 722> 411 63<-123 395 454 611.565>
LayerCount: 2
Fore
SplineSet
266 409 m 3xf4
 166.993164062 409 109 356 109 287 c 3
 109 214.9453125 156 175 215 175 c 3
 293.498046875 175 370.396484375 223.685546875 439.463867188 318.021484375 c 1
 469.536132812 263.978515625 l 1
 398.4140625 183.390625 323.563476562 118 210 118 c 3
 114 118 46 179.9609375 46 284 c 3
 46 402.038085938 155 466 269 466 c 3
 332 466 369 459 433 454 c 25
 417 395 l 25
 358 400 326 409 266 409 c 3xf4
411 -123 m 25
 411 488 l 18
 411 622 370 669 302 669 c 3
 245 669 189.797851562 646.282226562 121.280273438 565.913085938 c 1
 88.7197265625 603.086914062 l 1
 159 685 228 726 315 726 c 3
 425 726 474 654 474 488 c 10
 474 -123 l 25
 411 -123 l 25
147 507 m 1xec
 84 507 l 1
 84 722 l 1
 147 722 l 25
 147 507 l 1xec
EndSplineSet
EndChar
StartChar: d
Encoding: 100 100 17
Width: 570
VWidth: 1024
Flags: W
HStem: 669 57<228.274 382.544>
VStem: 96 63<-123 722> 423 63<467 621.743>
LayerCount: 2
Back
SplineSet
420 292 m 17x7c
 466 340 531.958007812 444.333984375 608.78515625 542 c 0
 683.405273438 636.860351562 765 727.92578125 857 762 c 1
 867 762 l 1
 867 699 l 1
 761 654.244140625 649 502 580 408 c 1
 583 406 l 1
 602 413 626.958984375 413 656 413 c 3x7c
 766.453125 413 876.975585938 400 963 400 c 3
 1035.25 400 1060 412 1060 450 c 3
 1060 475.268554688 1042.4765625 489 1027 489 c 3
 1011.47851562 489 1002 471.985351562 1002 458 c 3
 1002 439 1008 421 1039 405 c 1
 978 396 l 1
 951 406 938 430 938 463 c 3
 938 524.134765625 996.197265625 546 1025 546 c 3
 1069.24316406 546 1123 519.610351562 1123 452 c 3
 1123 374.993164062 1070.08203125 343 977 343 c 3xbc
 866.451171875 343 750.307617188 356 646 356 c 3
 605.959960938 356 567.606445312 354.668945312 538 337 c 1
 509.267578125 301.981445312 477 263 450 237 c 1
 420 292 l 17x7c
EndSplineSet
Fore
SplineSet
112 -123 m 1
 534 442 l 1
 544 442 l 1
 544 350 l 1
 193 -123 l 1
 112 -123 l 1
423 467 m 29
 423 518 l 22
 423 632 382 669 314 669 c 7
 257 669 201.797851562 646.282226562 133.280273438 565.913085938 c 5
 100.719726562 603.086914062 l 5
 171 685 240 726 327 726 c 7
 437 726 486 664 486 518 c 14
 486 467 l 29
 423 467 l 29
159 -123 m 5
 96 -123 l 5
 96 722 l 5
 159 722 l 5
 159 -123 l 5
EndSplineSet
EndChar
StartChar: e
Encoding: 101 101 13
Width: 600
VWidth: 1024
Flags: W
HStem: 210 57<236.475 400.414> 328 66<432.488 505> 328 57<189.72 328.897> 336 58<432.815 505> 574 56<344.38 410.345> 671 56<213.936 295>
VStem: 68 64<438.998 600.418> 103 63<-123 -3 57 263> 268 62<431.642 562.362> 411 63<107.309 196.661> 422 64<431.866 564.854>
LayerCount: 2
Fore
SplineSet
377 574 m 3xaea0
 350.447265625 574 330 539.865234375 330 504 c 3
 330 451.2890625 364.985351562 385 431 385 c 3xaea0
 463 385 479 387 495 394 c 1
 505 394 l 1xcea0
 506 336 l 1x9ea0
 491 331 470 328 431 328 c 3
 328.205078125 328 268 416.375976562 268 504 c 3
 268 576.049804688 311.305664062 630 377 630 c 3
 447.1640625 630 486 565.525390625 486 500 c 3
 486 396.102539062 400.546875 328 280 328 c 3
 158.634765625 328 68 388.209960938 68 520 c 3
 68 649.033203125 161.365234375 714.4921875 285 727 c 1
 295 727 l 1
 295 671 l 1
 203.34765625 658.501953125 132 621.401367188 132 520 c 3
 132 427.516601562 191.458984375 384 280 384 c 3
 367.7734375 384 422 425.302734375 422 500 c 3
 422 540.946289062 405.869140625 574 377 574 c 3xaea0
411 151 m 7x8cc0
 411 190 395 210 318 210 c 7
 255 210 203 175 151 118 c 5
 116 162 l 5
 183 226 236 267 325 267 c 7
 418 267 474 240 474 158 c 7
 474 62 394 29 252 15 c 4
 181 8 180 7 136 -3 c 5
 136 57 l 5
 183 65 190 66 245 70 c 4
 358 79 411 102 411 151 c 7x8cc0
103 -123 m 5x8d80
 103 263 l 5
 166 263 l 5
 166 49 166 -42 166 -123 c 5
 103 -123 l 5x8d80
542 -110 m 5
 542 -123 l 5
 472 -123 l 5
 389 -36 l 6
 351 4 289 18 227 18 c 5
 231 50 l 5
 281 57 l 5
 353 53 415 23 458 -22 c 6
 542 -110 l 5
EndSplineSet
Substitution2: "low-1" e.low
EndChar
StartChar: f
Encoding: 102 102 11
Width: 550
VWidth: 1024
Flags: W
HStem: -127 57<239.397 347.153> 243 56<132.833 218.31> 626 76<354.945 391> 705 57<175.263 240>
VStem: 57 64<310.83 423.249> 84 64<567.331 678.679> 154 63<-46.645 73.8635> 228 64<307.673 428.565> 391 63<-14.4014 626>
LayerCount: 2
Back
SplineSet
150 352 m 3
 150 323 167 299 204 299 c 3
 243 299 258 324.392578125 258 356 c 3
 258 458.004882812 104 501.683983852 104 630 c 3
 104 702.027772421 162 762 240 762 c 1
 260 762 l 1
 260 705 l 1
 192 702 168 664.045431091 168 620 c 3
 168 557.967750323 322 472.041015625 322 363 c 3
 322 283.786132812 272 243 204 243 c 3
 135.5859375 243 86 286.715820312 86 363 c 3
 86 438.088867188 141.771484375 494.990234375 200.436523438 548 c 0
 252.8125 595.326171875 325.46484375 656 385 656 c 3
 466.59375 656 494 616 494 478 c 2
 494 168 l 18
 494 -20 427 -107 320 -107 c 3
 232.418945312 -107 184 -55 184 16 c 3
 184 104 240.821319963 139.629951804 299.512695312 170.154296875 c 0
 390 217.718397997 434 262 548 440 c 1
 558 440 l 1
 558 353 l 1
 470 227 418 164.172371237 343.487304688 125.845703125 c 0
 287.048351316 97.2000924627 247 72 247 15 c 3
 247 -23 275.409179688 -50 325 -50 c 3
 389 -50 431 26 431 162 c 10
 431 458 l 18
 431 572 422.012695312 599 382 599 c 3
 351.829101562 599 311.55078125 558.50390625 267.529296875 522 c 0
 190 457.7109375 150 426.966659256 150 352 c 3
304 409 m 3
 204.993164062 409 157 359 157 290 c 3
 157 217.9453125 211 175 273 175 c 3
 340 175 412 214 458 315 c 1
 497 267 l 1
 445 176 365 118 268 118 c 3
 169 118 94 182.9609375 94 287 c 3
 94 405.038085938 193 466 307 466 c 3
 370 466 409 463 471 454 c 25
 455 395 l 25
 396 404 364 409 304 409 c 3
449 -103 m 25
 449 468 l 18
 449 602 408 649 340 649 c 3
 283 649 227.797851562 626.282226562 159.280273438 545.913085938 c 1
 126.719726562 583.086914062 l 1
 197 665 266 706 353 706 c 3
 463 706 512 634 512 468 c 10
 512 -103 l 25
 449 -103 l 25
165 487 m 1
 102 487 l 1
 102 702 l 1
 165 702 l 25
 165 487 l 1
EndSplineSet
Fore
SplineSet
121 355 m 3xfb80
 121 326 140 299 177 299 c 3
 216 299 228 328.392578125 228 360 c 3
 228 472.004882812 84 501.68359375 84 630 c 3
 84 702.02734375 142 762 220 762 c 1
 240 762 l 1
 240 705 l 1
 172 702 148 664.045898438 148 620 c 3xf780
 148 547.967773438 292 466.041015625 292 367 c 3
 292 287.786132812 247 243 179 243 c 3
 110.5859375 243 57 289.715820312 57 366 c 3
 57 438.088867188 120.330078125 496.630859375 180.436523438 548 c 0
 235.8125 595.326171875 333 669 384 702 c 1
 454 702 l 1
 454 148 l 2
 454 -50 396 -127 294 -127 c 3
 190.418945312 -127 154 -55 154 16 c 3
 154 90 202.021484375 129.078125 267.665039062 173.153320312 c 0
 351.984375 229.767578125 404 282 508 420 c 1
 518 420 l 1
 518 333 l 1
 430 227 386.223632812 177.521484375 315.334960938 132.846679688 c 0
 261.607421875 99.390625 217 72 217 15 c 3
 217 -23 235.409179688 -70 295 -70 c 3
 359 -70 391 -10 391 142 c 2
 391 626 l 1
 387 626 l 1
 348 602 291.55078125 558.50390625 247.529296875 522 c 0
 170 457.7109375 121 421.966796875 121 355 c 3xfb80
EndSplineSet
Substitution2: "faa-1" faa
EndChar
StartChar: g
Encoding: 103 103 20
Width: 510
VWidth: 1024
Flags: W
HStem: 167 57<160.05 337.418> 455 58<191 252.522>
VStem: 96 63<-123 172.958 230.22 722> 392 63<270.497 397.012>
LayerCount: 2
Fore
SplineSet
296 497 m 1
 296 492 l 1
 404 473.560546875 455 421.993164062 455 334 c 3
 455 217.892578125 350 167 231 167 c 3
 196.106445312 167 156.772460938 169.830078125 121 172.958007812 c 9
 120 230.219726562 l 17
 156.931640625 225.48046875 194.138671875 224 223 224 c 3
 330 224 392 257.75 392 333 c 3
 392 402.034179688 354 438.3671875 191 455 c 1
 191 513 l 1
 237.401367188 513 263.893129771 536 300 591 c 2
 386 722 l 1
 455 722 l 1
 455 712 l 17
 368 577 l 2
 340.288888889 534 320.670898438 510.7734375 296 497 c 1
159 -123 m 1
 96 -123 l 1
 96 722 l 1
 159 722 l 1
 159 -123 l 1
EndSplineSet
EndChar
StartChar: h
Encoding: 104 104 23
Width: 860
VWidth: 1024
Flags: W
HStem: -119 57<322 391 454 525> -93 31<391 454> 279 57<222.709 359.836> 649 57<521.014 647.664>
VStem: 96 63<-123 722> 391 63<-93 243.899 310.623 564.25> 701 63<-123 581.959>
LayerCount: 2
Fore
SplineSet
525 -119 m 5xbe
 322 -119 l 5
 322 -62 l 5
 525 -62 l 29
 525 -119 l 5xbe
159 -123 m 1
 96 -123 l 1
 96 722 l 1
 159 722 l 1
 159 -123 l 1
701 -123 m 1
 701 449 l 2
 701 593 654 649 586 649 c 3
 524 649 454 604 454 426 c 0
 454 236.333007812 454 96.6669921875 454 -93 c 1
 391 -93 l 1x7e
 391 98 l 2
 391 232 370 279 302 279 c 0
 250 279 199.797851562 256.282226562 131.280273438 175.913085938 c 1
 98.7197265625 213.086914062 l 1
 169 295 230 336 307 336 c 0
 346.575195312 336 374.466796875 324.883789062 387 308.623046875 c 1
 391 310.623046875 l 1
 391 432 l 2
 391 644 493 706 590 706 c 3
 691 706 764 645 764 459 c 2
 764 -123 l 1
 701 -123 l 1
EndSplineSet
Substitution2: "low-1" h.low
EndChar
StartChar: j
Encoding: 106 106 24
Width: 610
VWidth: 1024
Flags: W
HStem: -119 47<169 323> 195 57<280.759 430.651> 669 57<258.68 432.687>
VStem: 84 63<347 565.913 603.087 722> 100 286<-119 145> 323 63<-72 252> 481 63<-123 38.6923 347 610.604>
LayerCount: 2
Fore
SplineSet
263 347 m 29xe2
 201 347 l 5
 201 357 l 29
 297 520 l 5
 365 520 l 29
 263 347 l 29xe2
550 50 m 7
 550 -33 547 -78 543 -123 c 5
 480 -123 l 5
 480 -113 l 5
 486 -72 487 -29 487 42 c 7
 487 144 443.138671875 195 343 195 c 7
 262.83984375 195 182 100 169 -72 c 13
 323 -72 l 29
 323 520 l 5
 386 520 l 29xe6
 386 -119 l 21
 100 -119 l 5
 100 -79 l 5xea
 117 145 228 252 357 252 c 7
 489 252 550 168.004882812 550 50 c 7
481 347 m 29
 481 488 l 22
 481 622 440 669 362 669 c 7
 305 669 209.797851562 646.282226562 141.280273438 565.913085938 c 5
 108.719726562 603.086914062 l 5
 179 685 288 726 375 726 c 7
 485 726 544 664 544 488 c 14
 544 347 l 29
 481 347 l 29
147 347 m 5xf2
 84 347 l 5
 84 722 l 5
 147 722 l 29
 147 347 l 5xf2
EndSplineSet
EndChar
StartChar: k
Encoding: 107 107 25
Width: 520
VWidth: 1024
Flags: W
HStem: -127 60<241.703 383.337> -119 61<297.221 384> 169 59<37 59.3125> 257 64<265.686 403.444> 405 58<305.488 378> 671 56<250.479 319>
VStem: 122 64<488.143 613.782> 134 63<-12.5205 303.811> 398 67<142 218.923> 407 66<142.659 251.995>
LayerCount: 2
Fore
SplineSet
37 228 m 1x3c40
 241 292 l 18
 301 311 346 321 380 321 c 3
 445 321 473 277 473 229 c 0x3c40
 473 194 470 164 465 142 c 1
 398 142 l 1
 398 160 l 1x3c80
 403 175 407 197 407 220 c 0
 407 238 399 257 358 257 c 3
 338 257 311 252 273 240 c 10
 47 169 l 1
 37 169 l 1
 37 228 l 1x3c40
384 -119 m 5x7d
 362 -124 322 -127 287 -127 c 4
 167 -127 134 -26 134 108 c 7xbd
 134 242 145 350 231 402 c 1
 231 407 l 1
 170 421 122 468 122 546 c 0
 122 635 185 714 309 727 c 1
 319 727 l 1
 319 671 l 1
 227 659 186 607 186 546 c 0xbe
 186 494 225 454 304 454 c 0
 336 454 352 456 368 463 c 1
 378 463 l 1
 379 405 l 1
 367 401 352 400 327 397 c 0
 205 384 197 245 197 104 c 7
 197 9 226 -67 296 -67 c 4xbd
 322 -67 351 -63 366 -58 c 5
 384 -58 l 5
 384 -119 l 5x7d
EndSplineSet
EndChar
StartChar: l
Encoding: 108 108 28
Width: 580
Flags: W
HStem: -108 58<144.637 311.238> -78 64<96 170.107> -73 23<314 377> 244 64<96 172.947> 278 58<138.944 348.649> 278 24<314 377>
VStem: 314 63<-73 302> 454 62<21.0474 211.072>
LayerCount: 2
Fore
SplineSet
377 -73 m 1x27
 314 -73 l 1
 314 302 l 1
 377 302 l 25
 377 -73 l 1x27
454 121 m 3
 454 240 380 278 290 278 c 0x8b
 224 278 159 267 106 244 c 1
 96 244 l 1
 96 308 l 1x13
 161 330 222 336 290 336 c 0
 423 336 516 274 516 121 c 3
 516 -32 433 -108 290 -108 c 0x8b
 222 -108 161 -102 96 -78 c 1
 96 -14 l 1
 106 -14 l 1x43
 159 -37 224 -50 290 -50 c 0x83
 390 -50 454 2 454 121 c 3
EndSplineSet
Substitution2: "low-1" l.low
Substitution2: "high-1" l.high
EndChar
StartChar: m
Encoding: 109 109 29
Width: 650
Flags: W
HStem: -108 58<77.0769 244.813 403.354 567.232> -98 64<76 179.91 470.09 574> 91 57<87 565> 257 64<76 179.91 470.09 574> 278 58<82.7675 247.601 402.857 572.923>
VStem: 284 82<-5.27661 234.277>
LayerCount: 2
Fore
SplineSet
565 91 m 5x24
 87 91 l 5
 87 148 l 5
 565 148 l 29
 565 91 l 5x24
284 121 m 0
 284 240 251 278 182 278 c 0xac
 139 278 119 271 86 257 c 1
 76 257 l 1
 76 321 l 1x34
 119 333 137 336 182 336 c 0
 248.828880724 336 307.853515625 297.11328125 324.153320312 235.727539062 c 1
 328.153320312 235.727539062 l 1
 343.765625 297.328125 399.389867407 337 468 337 c 0
 513 337 531 335 574 327 c 1
 574 263 l 1
 564 263 l 1
 531 273 511 279 468 279 c 0
 393 279 366 227 366 108 c 0
 366 -11 399 -49 468 -49 c 0
 511 -49 531 -42 564 -28 c 1
 574 -28 l 1
 574 -92 l 1
 531 -104 513 -107 468 -107 c 0
 401.171119276 -107 342.146484375 -68.11328125 325.846679688 -6.7275390625 c 1
 321.846679688 -6.7275390625 l 1
 306.234375 -68.328125 250.610132593 -108 182 -108 c 0xac
 137 -108 119 -106 76 -98 c 1
 76 -34 l 1
 86 -34 l 1x64
 119 -44 139 -50 182 -50 c 0xa4
 257 -50 284 2 284 121 c 0
EndSplineSet
Substitution2: "low-1" m.low
Substitution2: "high-1" m.high
EndChar
StartChar: n
Encoding: 110 110 6
Width: 650
Flags: W
HStem: -107 56<245.197 409.253 474.27 545> 138 57<37 613> 279 57<405.441 459.89>
VStem: 122 64<12.0227 255.484> 167 67<270.6 332> 329 62<35.792 269.895> 474 62<33.3497 269.653>
LayerCount: 2
Back
SplineSet
44 107 m 5
 34 107 l 5
 34 174 l 5
 85 213.342773438 137 234 211 234 c 4xb2
 296 234 361 181 437 181 c 4
 512.33203125 181 552 199 606 253 c 5
 616 253 l 5
 616 183 l 5
 574 144.818359375 527 125 437 125 c 4xd2
 353 125 287 178 211 178 c 4xb2
 151 178 110 167.342773438 44 107 c 5
151 247 m 25
 139 181 134 122 134 55 c 27
 134 -60 198 -146 313 -146 c 27
 435 -146 517 -76 517 96 c 3
 517 161 502.525390625 232 468 232 c 3
 431.944335938 232 417 170.592773438 417 86 c 3
 417 -48.23828125 487 -130 523 -132 c 1025
EndSplineSet
Fore
SplineSet
613 138 m 5xe6
 37 138 l 5
 37 195 l 5
 613 195 l 29
 613 138 l 5xe6
474 162 m 3
 474 246 460 279 431 279 c 3
 406 279 391 248 391 136 c 3
 391 29 450 -46 546 -47 c 1
 545 -47 l 1
 545 -103 l 1
 534 -103 l 17
 420 -95 329 -27 329 136 c 3
 329 261 366 336 433 336 c 3
 509 336 536 266 536 162 c 3
 536 -5 457 -107 323 -107 c 0
 200 -107 122 -25 122 108 c 0xf6
 122 186 139 267 167 332 c 1
 234 332 l 1
 234 322 l 1xee
 205 269 186 184 186 108 c 0xf6
 186 8 234 -51 323 -51 c 0
 427 -51 474 27 474 162 c 3
EndSplineSet
Substitution2: "n-right-1" n.low_hidden2
Substitution2: "low-1" n_1.low
Substitution2: "high-1" n_1.high
EndChar
StartChar: p
Encoding: 112 112 9
Width: 590
VWidth: 1024
Flags: W
HStem: -107 57<219.212 380.279> 279 57<212.637 373.673>
VStem: 72 63<31.2343 195.29> 455 63<28.993 197.272>
LayerCount: 2
Fore
SplineSet
301.2734375 -107 m 3
 170.783203125 -107 72 -21.8310546875 72 111.400390625 c 3
 72 237.2265625 163.357421875 336 291.7265625 336 c 3
 423.27734375 336 518 248.634765625 518 118.599609375 c 3
 518 -10.2138671875 430.704101562 -107 301.2734375 -107 c 3
289.603515625 279 m 3
 195.18359375 279 135 197.826171875 135 113.200195312 c 3
 135 21.373046875 205.79296875 -50 303.396484375 -50 c 3
 398.875976562 -50 455 29.38671875 455 116.799804688 c 3
 455 205.629882812 388.267578125 279 289.603515625 279 c 3
EndSplineSet
Substitution2: "low-1" p.low
Substitution2: "high-1" p.high
EndChar
StartChar: r
Encoding: 114 114 3
Width: 650
VWidth: 0
Flags: W
HStem: 210 57<321.008 415.616> 312 54<126 218.464> 446 54<402.535 513.56> 454 70<72 126.934> 569 59<383.496 520.14> 665 53<480.448 564> 672 54<409.788 563.221>
VStem: 242 62<388.353 469.548> 279 70<-127 -91.1837> 318 62<522.804 642.51> 431 66<59.7251 194.939> 521 66<510.116 565.297>
LayerCount: 2
Back
SplineSet
262 476 m 5
 262 471 l 5
 277 457 288 436.055664062 288 404 c 4
 288 332 238 297 158 291 c 5
 148 291 l 5
 148 346 l 5
 206 347 226 370 226 404 c 4
 226 428.217773438 199.969726562 455 176 455 c 4
 151 455 137 452 105 434 c 5
 95 434 l 5
 95 502 l 5
 184 531 242 535 323 538 c 5
 323 543 l 5
 308 552 286 580.944335938 286 613 c 4
 286 685 332 716 416 726 c 5
 426 726 l 5
 426 671 l 5
 373 667 348 647 348 613 c 4
 348 588.782226562 378 558 411 558 c 4
 452 558 490.01171875 596.514648438 529 643 c 5
 539 643 l 5
 539 557 l 5
 490 508 462 483 262 476 c 5
269 484 m 1
 269 489 l 1
 198 493 158 532 158 595 c 0
 158 654 195 714.907226562 299 727 c 1
 309 727 l 1
 309 671 l 1
 243 664 222 633 222 602 c 0
 222 566 249 544 278 544 c 0
 310.26953125 544 341.181818182 574 385 646 c 1
 395 646 l 1
 395 540 l 1
 289 416 l 1
 289 411 l 1
 344 400 368 358 368 300 c 3
 368 261 338 219.9375 311 195 c 1
 241 195 l 1
 241 205 l 1
 269 230 304 259 304 300 c 3
 304 342 286 341 250 341 c 3
 222.357421875 341 192.247070312 330.247070312 168 306 c 1
 158 306 l 1
 158 356 l 1
 269 484 l 1
214 140 m 1
 193 183 l 1
 250 226 293 251 355 251 c 0
 431 251 497 190 497 108 c 0
 497 0 374 -68 332 -168 c 1
 255 -168 l 1
 255 -158 l 1
 316 -31 431 18 431 104 c 0
 431 155 392 194 355 194 c 0
 291 194 278 184 214 140 c 1
345 296 m 1
 345 286 l 1
 123 31 l 1
 113 31 l 1
 113 113 l 1
 275 296 l 1
 345 296 l 1
EndSplineSet
Fore
SplineSet
462 500 m 0xeb70
 490 500 521 515 521 542 c 0
 521 559 503 569 470 569 c 0
 390 569 295 553 228 525 c 1
 228 522 l 1
 273 517 304 482 304 429 c 0
 304 349 233 312 126 312 c 1
 126 366 l 1
 195 366 242 387 242 429 c 0
 242 462 217 480 179 480 c 0
 143 480 113 471 82 454 c 1
 72 454 l 1
 72 524 l 1xd970
 196 575 370 628 470 628 c 0
 545 628 587 600 587 543 c 0
 587 480 531 446 462 446 c 0
 383 446 318 493 318 580 c 0
 318 663 375 726 479 726 c 0xeb70
 510 726 534 723 564 718 c 1
 564 665 l 1
 554 665 l 1xcd70
 526 670 507 672 479 672 c 0
 413 672 380 636 380 580 c 0
 380 525 419 500 462 500 c 0xeb70
231 159 m 5
 213 199 l 5
 270 242 329 267 375 267 c 4
 451 267 497 221 497 139 c 4
 497 11 391 -37 349 -127 c 5
 279 -127 l 5
 279 -117 l 5xc8b0
 340 0 431 34 431 135 c 4
 431 190 404 210 365 210 c 4
 327 210 295 203 231 159 c 5
372 312 m 5
 372 302 l 5
 143 51 l 5
 133 51 l 5
 133 129 l 5
 304 312 l 5xc930
 372 312 l 5
EndSplineSet
Substitution2: "low-1" r.low
Substitution2: "high-1" r.high
EndChar
StartChar: s
Encoding: 115 115 36
Width: 590
Flags: W
HStem: -126.5 57<242.904 395.642> 359 56<161.729 314.291> 650 57<168.047 280.625>
VStem: 62 62<454.619 605.548> 136.5 63<-26.8808 135.761> 450 63<627.042 722> 483 10<57.8102 67>
LayerCount: 2
Back
SplineSet
164 498 m 7
 164 403 221 335 315 335 c 4
 404 335 472 394 472 564 c 4xf6
 472 610 465 653 455 692 c 5xee
 455 702 l 5
 522 702 l 5
 531 656 536 612 536 564 c 4xf6
 536 361 438 279 315 279 c 4
 188 279 102 360 102 498 c 7
 102 622 193 707 299 707 c 7
 356.01953125 707 390.0390625 697.166992188 419.53125 671 c 5
 419.53125 621 l 21
 209 358 l 5
 165 406 l 5
 351.16796875 639 l 5
 337.286132812 647.666992188 320.331054688 650 287 650 c 7
 234.735351562 650 164 602 164 498 c 7
229.5 60 m 0
 229.5 -20.9951171875 286.647460938 -54.5 350 -54.5 c 0
 413.374023438 -54.5 471 -18 513 82 c 1
 523 82 l 1
 522.327659091 -15.6445919676 l 1
 480.720866048 -72.8133460644 433.784818939 -111.5 340 -111.5 c 0
 246.314493326 -111.5 166.5 -47.0048828125 166.5 60 c 0
 166.5 189.147460938 259 276 405.0546875 355.657226562 c 1
 436.591796875 314.688476562 l 1
 293 248 229.5 154.565429688 229.5 60 c 0
EndSplineSet
Fore
SplineSet
438.826171875 486.288085938 m 1xf8
 375 390 309.041992188 359 245 359 c 0
 138 359 62 425 62 533 c 7
 62 637 138 707 239 707 c 3
 286.01953125 707 317.0390625 695.166992188 349.53125 673 c 1
 349.53125 621 l 1
 163 390 l 1
 119 438 l 1
 281.16796875 639 l 1
 267.286132812 646.666992188 250.331054688 650 227 650 c 3
 174.735351562 650 124 607 124 533 c 7
 124 478 161 415 245 415 c 0
 309.071289062 415 359 440 401.028320312 526.1328125 c 1
 438.826171875 486.288085938 l 1xf8
199.5 45 m 0
 199.5 -35.9951171875 256.647460938 -69.5 320 -69.5 c 0
 383.374023438 -69.5 441 -33 483 67 c 1
 493 67 l 1xfa
 492.328125 -30.64453125 l 1
 450.720703125 -87.8134765625 403.78515625 -126.5 310 -126.5 c 0
 216.314453125 -126.5 136.5 -62.0048828125 136.5 45 c 0
 136.5 257 399 352 450 722 c 1
 513 722 l 1
 513 712 l 1xfc
 457 328 199.5 229 199.5 45 c 0
EndSplineSet
EndChar
StartChar: t
Encoding: 116 116 8
Width: 660
VWidth: 0
Flags: W
HStem: 233 57<351.563 464.426> 387 60<55 216.32> 644 54<348 510>
VStem: 82 63<-123 286> 285 63<-123 428 510 641> 523 63<-124 173.918>
LayerCount: 2
Back
SplineSet
-150 292 m 17x7c
 -104 340 -38.0419921875 444.333984375 38.78515625 542 c 0
 113.40497324 636.859959797 195 727.92578125 287 762 c 1
 297 762 l 1
 297 699 l 1
 191 654.244140625 79 502 10 408 c 1
 13 406 l 1
 32 413 56.958984375 413 86 413 c 3x7c
 196.453125 413 306.975585938 400 393 400 c 3
 465.25 400 490 412 490 450 c 3
 490 475.268554688 472.4765625 489 457 489 c 3
 441.478515625 489 432 471.985351562 432 458 c 3
 432 439 438 421 469 405 c 1
 408 396 l 1
 381 406 368 430 368 463 c 3
 368 524.134765625 426.197265625 546 455 546 c 3
 499.243164062 546 553 519.610351562 553 452 c 3
 553 374.993164062 500.08203125 343 407 343 c 3xbc
 296.451171875 343 180.307617188 356 76 356 c 3
 35.9599609375 356 -2.3935546875 354.668945312 -32 337 c 1
 -60.732421875 301.981445312 -93 263 -120 237 c 1
 -150 292 l 17x7c
-435 355 m 7
 -435 326 -416 299 -379 299 c 7
 -340 299 -328 328.392578125 -328 360 c 7
 -328 472.004882812 -472 501.68359375 -472 630 c 7
 -472 702.02734375 -414 762 -336 762 c 5
 -316 762 l 5
 -316 705 l 5
 -384 702 -408 664.045898438 -408 620 c 7
 -408 547.967773438 -264 466.041015625 -264 367 c 7
 -264 287.786132812 -309 243 -377 243 c 7
 -445.4140625 243 -499 289.715820312 -499 366 c 7
 -499 438.088867188 -435.669921875 496.630859375 -375.563476562 548 c 4
 -320.1875 595.326171875 -223 669 -172 702 c 5
 -102 702 l 5
 -102 148 l 6
 -102 -50 -160 -127 -262 -127 c 7
 -365.581054688 -127 -402 -55 -402 16 c 7
 -402 90 -353.978515625 129.078125 -288.334960938 173.153320312 c 4
 -204.015625 229.767578125 -152 282 -48 420 c 5
 -38 420 l 5
 -38 333 l 5
 -126 227 -169.776367188 177.521484375 -240.665039062 132.846679688 c 4
 -294.392578125 99.390625 -339 72 -339 15 c 7
 -339 -23 -320.590820312 -70 -261 -70 c 7
 -197 -70 -165 -10 -165 142 c 6
 -165 626 l 5
 -169 626 l 5
 -208 602 -264.44921875 558.50390625 -308.470703125 522 c 4
 -386 457.7109375 -435 421.966796875 -435 355 c 7
EndSplineSet
Fore
SplineSet
523 -124 m 29
 523 72 l 22
 523 188 474 233 374 233 c 7
 281 233 192 176 117 102 c 5
 92 147 l 5
 169 222 264 290 377 290 c 7
 517 290 586 227 586 78 c 14
 586 -124 l 29
 523 -124 l 29
145 -123 m 5
 82 -123 l 5
 82 286 l 5
 145 286 l 5
 145 -123 l 5
348 510 m 5
 448 555 485 599 510 644 c 5
 348 641 l 5
 348 510 l 5
348 446 m 5
 348 -123 l 5
 326 -123 307 -123 285 -123 c 5
 285 428 l 5
 215 403 115 387 55 387 c 5
 55 407 55 427 55 447 c 5
 104 447 210 459 285 489 c 5
 285 553 285 634 285 698 c 5
 584 698 l 5
 584 642 l 5
 538 567 476 503 348 446 c 5
EndSplineSet
EndChar
StartChar: v
Encoding: 118 118 44
Width: 640
Flags: W
HStem: -127 58<139.034 257.532> 669 57<239.74 369.722>
VStem: 66 64<-59.8455 45.5417> 106 63<388 722> 130 39<374 384> 322 64<0.199877 193.109> 388 63<546.534 650.632> 498 64<-123 318>
LayerCount: 2
Fore
SplineSet
130 384 m 1xcf
 278 476 388 528 388 597 c 3
 388 644 356 669 310 669 c 3
 263.974609375 669 202.346679688 638 156 559 c 1
 120 598 l 1
 171.758789062 677 242.3671875 726 317 726 c 3
 407 726 451 676 451 604 c 3
 451 508 342 440 169 347 c 1
 130 374 l 1
 130 384 l 1xcf
169 347 m 1
 106 347 l 1
 106 722 l 1
 169 722 l 1xd7
 169 347 l 1
66 -18 m 3xe7
 66 46.310546875 93.3681640625 77.2314453125 170 138 c 2
 484 387 l 1
 562 387 l 1
 562 -123 l 1
 498 -123 l 1
 498 318 l 1
 494 318 l 1
 194 85 l 2
 139.055664062 42.3271484375 130 19 130 -12 c 3xe7
 130 -48 148 -69 188 -69 c 3
 263 -69 322 -6 322 89 c 3
 322 213 241 285 106 347 c 5xd7
 109 383 l 1
 156 388 l 1
 290 332 386 232 386 89 c 3
 386 -42 300 -127 188 -127 c 3
 110 -127 66 -83 66 -18 c 3xe7
EndSplineSet
EndChar
StartChar: z
Encoding: 122 122 52
Width: 710
VWidth: 1024
Flags: W
HStem: -123 57<332.742 492.877> 316 20G<246 469 563 626> 669 57<228.423 386.517>
VStem: 96 63<-123 722> 226 63<-21.437 154.12> 423 63<465.316 630.379> 563 63<-119 336>
LayerCount: 2
Fore
SplineSet
469 279 m 1
 246 279 l 1
 246 336 l 1
 469 336 l 25
 469 279 l 1
469 279 m 5
 352 226 289 167.501953125 289 59 c 3
 289 -21 332 -66 403 -66 c 7
 464 -66 520 -43 589 37 c 1
 621 0 l 1
 551 -82 481 -123 394 -123 c 7
 296 -123 226 -60 226 58 c 3
 226 187.903320312 318 256 364 277 c 1
 365 291 l 1
 469 279 l 5
563 336 m 1
 626 336 l 1
 626 -119 l 1
 563 -119 l 1
 563 336 l 1
246 336 m 1
 351 389 423 456.267716685 423 548 c 3
 423 622 392 669 314 669 c 3
 257 669 202 646 133 566 c 1
 101 603 l 1
 171 685 235 726 322 726 c 3
 432 726 486 669 486 557 c 3
 486 435.875976562 397 358 351 338 c 1
 354 323 l 1
 246 336 l 1
159 -123 m 1
 96 -123 l 1
 96 722 l 1
 159 722 l 1
 159 -123 l 1
EndSplineSet
EndChar
StartChar: uni01F3
Encoding: 499 499 53
Width: 570
Flags: W
HStem: -112 58<200.82 397.517> 470 56<157 208> 650 56<273.062 390.505>
VStem: 80 62<3.96626 162.525> 95 175<470 526> 208 62<526 722> 422 62<469.353 617.328>
LayerCount: 2
Fore
SplineSet
239 526 m 1xf2
 208 470 l 1xf6
 95 470 l 1
 95 536 l 1xea
 130 617 215.907226562 706 322 706 c 3
 423.215820312 706 484 652.264648438 484 547 c 3
 484 438 419 380.518208565 308 296 c 0
 211 222.141745669 142 177 142 80 c 3
 142 -6.701171875 201.821289062 -54 286 -54 c 3
 372.471679688 -54 438 -22 493 34 c 1
 503 34 l 1
 502 -46 l 1
 450.255859375 -89.71484375 390.053710938 -112 286 -112 c 3
 160.868164062 -112 80 -46.53515625 80 80 c 3
 80 205 175 269.664596273 268 340 c 0
 369 416.385761037 422 466 422 547 c 3
 422 613.71875 387.981445312 650 317 650 c 3
 239 650 183 590 157 526 c 1
 239 526 l 1xf2
208 722 m 1
 270 722 l 1xe6
 270 470 l 1xea
 208 470 l 1
 208 722 l 1
EndSplineSet
LCarets2: 1 0
Substitution2: "low-1" d_z.low
Ligature2: "required-ligature-1" d z
EndChar
StartChar: uni027E
Encoding: 638 638 30
Width: 620
Flags: W
HStem: 231 59<159 569> 352 60<333.109 458.195> 607 91<433.509 527> 644 54<159 428>
VStem: 96 63<211 231 290 644> 258 62<424.57 532.015> 459 63<-123 412>
LayerCount: 2
Fore
SplineSet
522 -123 m 1xce
 459 -123 l 1
 459 412 l 1
 522 412 l 1
 522 -123 l 1xce
258 471 m 3
 258 552 329 621 431 641 c 1
 428 644 l 1
 159 644 l 1
 159 290 l 1
 569 288 l 1
 569 231 l 1
 159 231 l 1
 159 211 l 1
 96 211 l 1
 96 211 96 634 96 698 c 1
 528 698 l 1xde
 527 607 l 1xee
 370 590 320 531.032226562 320 474 c 3
 320 435 347.522460938 410 384 410 c 3
 446.12890625 410 482 431 512 454 c 1
 522 454 l 1
 522 386 l 1
 495 368 449.12109375 352 383 352 c 3
 310.580078125 352 258 391.995117188 258 471 c 3
EndSplineSet
EndChar
StartChar: uni0281
Encoding: 641 641 2
Width: 650
VWidth: 1024
Flags: W
HStem: -107 57<309.441 403.277> 233 57<247.505 380.845>
VStem: 86 63<-103 286> 231 59<-29.4028 62.0699> 433 63<38.7 177.689> 440 66<400.631 450> 547 63<225 336.821>
LayerCount: 2
Back
SplineSet
450 840 m 5xf6
 516 840 l 5
 522 786 559 762 620 762 c 5
 620 615 l 5
 557 615 l 5
 557 721 l 5
 508 732 458 762 450 830 c 5
 450 840 l 5xf6
506 516 m 6xfa
 506 433 460 343 372 343 c 7
 280 343 241 398 241 467 c 7
 241 501 251 542 268 562 c 5
 342 562 l 5
 594 409 l 5
 594 343 l 5
 584 343 l 5
 314 513 l 5
 303.79296875 501.8359375 300 486.131835938 300 469 c 7
 300 430 332 400 372 400 c 7
 414 400 443 457 443 516 c 6
 443 538 l 6
 443 599 400 669 332 669 c 7
 265 669 199.392578125 623 146.264648438 529.18359375 c 5
 107.735351562 556.81640625 l 5
 169.83203125 663 240 726 337 726 c 7
 447 726 506 636 506 538 c 6
 506 516 l 6xfa
159 347 m 5
 96 347 l 5
 96 722 l 5
 159 722 l 29
 159 347 l 5
EndSplineSet
Fore
SplineSet
440 450 m 1xf6
 506 450 l 1
 512 396 549 372 610 372 c 1
 610 225 l 1
 547 225 l 1
 547 331 l 1
 498 342 448 372 440 440 c 1
 440 450 l 1xf6
496 66 m 2xfa
 496 -17 450 -107 362 -107 c 3
 270 -107 231 -52 231 17 c 3
 231 51 241 92 258 112 c 1
 332 112 l 1
 584 -41 l 1
 584 -107 l 1
 574 -107 l 1
 304 63 l 1
 293.79296875 51.8359375 290 36.1318359375 290 19 c 3
 290 -20 322 -50 362 -50 c 3
 404 -50 433 7 433 66 c 2
 433 103 l 2
 433 164 390 233 322 233 c 3
 255 233 189.392578125 183 136.264648438 89.18359375 c 1
 97.7353515625 116.81640625 l 1
 159.83203125 223 230 290 327 290 c 3
 437 290 496 201 496 103 c 2
 496 66 l 2xfa
149 -103 m 1
 86 -103 l 1
 86 286 l 1
 149 286 l 25
 149 -103 l 1
EndSplineSet
Substitution2: "low-1" gr_1.low
Substitution2: "high-1" gr_1.high
EndChar
StartChar: uni2081
Encoding: 8321 8321 0
Width: 270
Flags: W
HStem: -147 35<64 232> -140 28<131 168> 79 35<65 115.745>
VStem: 131 37<-140 100.308>
LayerCount: 2
Fore
SplineSet
64 -112 m 1xb0
 120 -112 176 -112 232 -112 c 1
 232 -123.666666667 232 -135.333333333 232 -147 c 1
 176 -147 120 -147 64 -147 c 1
 64 -135.333333333 64 -123.666666667 64 -112 c 1xb0
163 -140 m 1x70
 136 -140 l 1
 131 -140 l 1
 131 -135 l 1
 131 100.307500444 l 1
 109.506632413 84.4015927424 87.0424500094 79 65 79 c 1
 65 90.6666666667 65 102.333333333 65 114 c 1
 84 114 108.277778984 120.578295388 146.012106822 155 c 1
 153.341404548 155 160.670702274 155 168 155 c 1
 168 58.3333333333 168 -38.3333333333 168 -135 c 2
 168 -140 l 1
 163 -140 l 1x70
EndSplineSet
EndChar
StartChar: uni2082
Encoding: 8322 8322 1
Width: 270
Flags: W
HStem: -146 36<79.1977 233> 103 36.0902<48 130.291> 121 35<60.121 179.253>
VStem: 187 38<32.9629 113.047>
LayerCount: 2
Fore
SplineSet
41 -114 m 0xb0
 41 -15.4296401167 187 -4.14401540724 187 78 c 0
 187 109.197521379 163.958059374 121 132 121 c 0xb0
 95.4384411061 121 78.2524621311 113.526855469 58.2353515625 103 c 1
 54.8235677083 103 51.4117838542 103 48 103 c 1
 48 115.030056648 48 127.060113296 48 139.090169944 c 1xd0
 68.2583954609 149.219367674 95.3923696778 156 132 156 c 0
 185.182506316 156 225 134.598495636 225 80 c 0
 225 -35.3455553766 85.6530552443 -40.8324830841 79.1976919138 -110 c 1
 130.465127943 -110 181.732563971 -110 233 -110 c 1
 233 -122 233 -134 233 -146 c 1
 42 -146 l 1
 41 -138.319944041 41 -128.577729787 41 -114 c 0xb0
EndSplineSet
EndChar
StartChar: uni2083
Encoding: 8323 8323 7
Width: 270
VWidth: 631
Flags: W
HStem: -150 35<64.0507 179.372> -131.091 36.0908<43 110.346> -6 34.8887<72 163.999> 104 35.0908<49 130.292> 121 35<57.5443 176.051>
VStem: 183 37<47.0112 113.647> 192 38<-103.674 -15.6321>
LayerCount: 2
Fore
SplineSet
183 81 m 0xa4
 183 105.577148438 164.331054688 121 133 121 c 0xac
 98.0185546875 121 83.513671875 114.146484375 64.236328125 104 c 1
 59.1572265625 104 54.0791015625 104 49 104 c 1
 49 139.090820312 l 1x34
 69.21484375 149.198242188 95.3935546875 156 132 156 c 0
 181.173828125 156 220 135.634765625 220 84 c 0x2c
 220 54.564453125 208.380859375 31.361328125 186.346679688 19.515625 c 1
 212.46875 8.470703125 230 -19.30859375 230 -59 c 0
 230 -107.029296875 204.798828125 -150 134 -150 c 0xaa
 92.390625 -150 65.154296875 -142.16796875 43 -131.090820312 c 1
 43 -119.060546875 43 -107.030273438 43 -95 c 1
 48.060546875 -95 53.12109375 -95 58.181640625 -95 c 1x62
 81.9453125 -106.881835938 107.374023438 -115 138 -115 c 0
 173.260742188 -115 192 -92.6396484375 192 -61 c 0xa2
 192 -16.4033203125 162.568359375 -4 132 -4 c 0
 111.295898438 -4 96.57421875 -6 77 -6 c 2
 72 -6 l 1
 72 5.6298828125 72 17.259765625 72 28.888671875 c 1
 161.388671875 30.8974609375 183 50.267578125 183 81 c 0xa4
EndSplineSet
EndChar
StartChar: H_1.low
Encoding: 65584 -1 74
Width: 325
VWidth: 1024
Flags: W
HStem: -127 58<-210.89 145.22> -109 63<-235 -63.0637> 40 55<-161 -11.2586> 182 63<-198 -97.4382> 210 57<-161.16 112.961>
VStem: 135 63<129.678 188.799> 167 63<-46.4323 16.0568>
LayerCount: 2
Fore
SplineSet
-9 48 m 0xa2
 -57 48 -117 45 -149 40 c 1
 -161 40 l 1
 -161 95 l 1
 115 107 135 129 135 161 c 0
 135 187 90 210 -14 210 c 3xac
 -83 210 -144 197 -178 182 c 1
 -198 182 l 1
 -198 245 l 1x34
 -160 257 -83 267 -7 267 c 3
 117 267 198 247 198 168 c 0x2c
 198 124 159 90 101 81 c 1
 101 76 l 1
 160 68 230 50 230 -18 c 3
 230 -109 114 -127 -28 -127 c 3xaa
 -92 -127 -183 -122 -235 -109 c 1
 -235 -46 l 1
 -215 -46 l 1x62
 -172 -61 -87 -69 -14 -69 c 3
 86 -69 167 -58 167 -18 c 3
 167 23 97 48 -9 48 c 0xa2
EndSplineSet
EndChar
StartChar: H_2
Encoding: 65538 -1 15
Width: 620
Flags: W
HStem: -99 59<159 599> 82 58<323.95 484.257> 347 68<406.283 492> 644 54<159 418>
VStem: 96 63<-119 -99 -40 644> 234 62<168.496 272.742 426.623 528.481>
LayerCount: 2
Fore
SplineSet
517 607 m 1
 354 580 298 535 298 473 c 3
 298 428 335.795898438 400 397 400 c 3
 426 400 459 405 482 415 c 1
 492 415 l 1
 492 347 l 1
 338 321.7 296 267.791015625 296 216 c 3
 296 174 337.522460938 140 387 140 c 3
 449.12890625 140 490 161 520 184 c 1
 530 184 l 1
 530 116 l 1
 503 98 452.12109375 82 386 82 c 3
 309.580078125 82 234 127.995117188 234 213 c 3
 234 280.05859375 266 324.846153846 334 351 c 1
 334 356 l 1
 281 365 236 405 236 473 c 3
 236 557 312 621 421 641 c 1
 418 644 l 1
 159 644 l 1
 159 -40 l 1
 599 -42 l 1
 599 -99 l 1
 159 -99 l 1
 159 -119 l 1
 96 -119 l 1
 96 -119 96 634 96 698 c 1
 518 698 l 1
 517 607 l 1
EndSplineSet
LCarets2: 1 310
Ligature2: "required-ligature-1" H uni2082
EndChar
StartChar: H_3
Encoding: 65539 -1 16
Width: 730
Flags: W
HStem: -107 57<452.684 594.578> -53 3<539 578> 52 56<554.467 611.853> 56 62<53 112.171> 288 58<265.018 397.288> 630 58<174.469 382>
VStem: 98 62<563 614.338> 186 62<362.916 472.374> 489 63<-21.1539 50.601> 615 62<-33.2333 49.1301>
LayerCount: 2
Fore
SplineSet
677 10 m 3x6fc0
 677 -73 622.124023438 -107 521 -107 c 3
 386 -107 275 61 93 61 c 3
 83 61 75 60 64 56 c 1
 53 56 l 1
 53 114 l 1
 66 117 80 118 93 118 c 3
 300.040039062 118 425 -50 519 -50 c 3x9fc0
 591 -50 615 -15 615 14 c 3
 615 36 599 52 582 52 c 3
 568 52 552 40 552 18 c 3
 552 -3 564 -21 597 -33 c 1
 586 -47 578 -52 539 -53 c 1
 502 -35.4931640625 489 -16 489 23 c 3
 489 71 533 108 578 108 c 3
 638 108 677 71 677 10 c 3x6fc0
317 346 m 0
 389 346 454 355 518 404 c 1
 528 404 l 1
 528 331 l 1
 506 306 488 287 463 267 c 0
 350 173 254 104 133 65 c 1
 112 116 l 1
 201 143 320 226 399 294 c 1
 397 298 l 1
 377 290 338 288 306 288 c 0
 243 288 186 330 186 405 c 0
 186 515 268 567 385 627 c 1
 382 630 l 1
 225 630 l 2
 185 630 160 604 160 563 c 1
 98 563 l 1
 98 573 l 1
 102 641 148 688 235 688 c 2
 424 688 l 2
 473 688 512 697 553 720 c 1
 502 804 l 1
 502 814 l 1
 568 814 l 1
 684 620 l 1
 684 610 l 1
 618 610 l 1
 581 673 l 1
 545 649 495 621 451 598 c 0
 338 540 248 494 248 405 c 0
 248 370 283 346 317 346 c 0
EndSplineSet
LCarets2: 1 365
Ligature2: "required-ligature-1" H uni2083
EndChar
StartChar: d_2
Encoding: 65541 -1 19
Width: 740
Flags: W
HStem: -132 58<166.895 263.398 307.378 425.55> 118 57<261.105 297.795> 171 69<382 446> 286 58<138 185 243 590> 414 57<78 105.045> 674 56<299.126 385.025>
VStem: 76 62<-43.2884 218.709> 98 65<118.635 240> 196 62<-30.3051 117.231> 222 62<344.721 659.952> 302 62<-38.2591 117.084> 382 64<171 240> 393 62<571.186 665.922> 423 66<37.9219 132> 446 64<-55.5054 118.567> 580 62<-74.3278 284.321> 613 62<-123 -32.2761>
LayerCount: 2
Fore
SplineSet
138 286 m 1x9e21
 138 344 l 1
 656 344 l 1
 656 296 l 1
 644 238 642 181 642 107 c 3x9e21
 642 27 652 -45 675 -113 c 1
 675 -123 l 1
 613 -123 l 1x9c2080
 590 -49 580 25 580 107 c 3
 580 171 584 233 590 286 c 1
 138 286 l 1x9e21
340 674 m 3
 307 674 284 646 284 593 c 2
 284 412 l 2
 284 347 267 320 243 306 c 1
 185 340 l 1
 215 342 222 361 222 406 c 2
 222 593 l 2x9c68
 222 686 272 730 337 730 c 3
 418 730 455 684.204574992 455 623 c 3
 455 548.474836464 392.534917114 496.403565807 258 460 c 2
 88 414 l 1
 78 414 l 1
 78 471 l 1
 248 515 l 2
 349.604965077 541.297755667 393 570 393 625 c 3x9ca8
 393 659 370 674 340 674 c 3
258 60 m 3xdea0
 258 -26 306 -74 373 -74 c 3
 415 -74 446 -50.1331855135 446 10 c 3xdea2
 446 57.539457296 437 88 423 122 c 1
 423 132 l 1
 489 132 l 1xdc24
 505 90 510 51 510 4 c 3
 510 -86 460 -132 373 -132 c 3
 274 -132 196 -56 196 62 c 3
 196 137 229 175 276 175 c 3
 329 175 364 138 364 67 c 3
 364 -32 317 -132 215 -132 c 3
 124 -132 76 -74 76 51 c 3xdea2
 76 132 86 183 98 240 c 1
 163 240 l 1
 163 230 l 1xbd20
 149 182 138 125 138 51 c 3
 138 -40 171 -74 215 -74 c 3
 260 -74 302 -32 302 58 c 3
 302 94 296 118 278 118 c 3
 264 118 258 96 258 60 c 3xdea0
382 240 m 1xbc30
 446 240 l 1
 446 171 l 1
 382 171 l 1
 382 240 l 1xbc30
EndSplineSet
LCarets2: 1 370
Ligature2: "required-ligature-1" d uni2082
EndChar
StartChar: d_z.low
Encoding: 65578 -1 68
Width: 325
Flags: W
HStem: -112 58<-140.996 156.623> 120 56<-138 -87> 210 56<-68.8637 117.694>
VStem: -215 62<-38.4017 14.6287> -200 175<120 176> -87 62<176 302> 127 62<138.31 197.103>
LayerCount: 2
Fore
SplineSet
-56 176 m 1xf2
 -87 120 l 1xf6
 -200 120 l 1
 -200 196 l 1xea
 -155 237 -79 266 27 266 c 3
 131 266 189 223 189 167 c 3
 189 34 -153 64 -153 -10 c 3
 -153 -41 -111 -54 -22 -54 c 3
 69 -54 144 -41 198 -17 c 1
 208 -17 l 1
 207 -84 l 1
 152 -101 82 -112 -22 -112 c 3
 -135 -112 -215 -103 -215 -10 c 3
 -215 126 127 82 127 167 c 3
 127 196 93 210 22 210 c 3
 -56 210 -102 201 -138 176 c 1
 -56 176 l 1xf2
-87 302 m 1
 -25 302 l 1xe6
 -25 120 l 1xea
 -87 120 l 1
 -87 302 l 1
EndSplineSet
EndChar
StartChar: dr_2
Encoding: 65547 -1 32
Width: 660
VWidth: 1024
Flags: W
HStem: 285.5 60<274.467 329.739> 293 62<576.035 623> 579.5 57<273.639 355.844>
VStem: 96 63<-123 -82 85 722> 190.5 63<365.696 559.381> 501 63<362.86 573>
LayerCount: 2
Fore
SplineSet
564 702 m 25x7c
 564 453 l 2
 564 356 586 355 623 355 c 1
 623 293 l 1
 613 293 l 1
 555 293 501 294.80859375 501 447 c 3
 501 581 501 652 501 702 c 25
 564 702 l 25x7c
185 20 m 0
 171 -8 161 -40 158 -85 c 1
 96 -82 l 1
 99 -31 134.584960938 50 152.584960938 85 c 1
 162.584960938 85 l 1
 179.334960938 110.2578125 195.379871889 134.414405697 217 158 c 0
 261 206 306.597846443 258.690543073 354 351 c 0
 392 425 443 564 474 702 c 1
 526 702 l 1
 508 573 l 1
 498 573 l 1
 490 526 451.679163543 404.167804456 411 326 c 0
 360 228 306 169 262 121 c 0
 229 85 203 55 185 20 c 0
159 -123 m 1
 96 -123 l 1
 96 722 l 1
 159 722 l 1
 159 -123 l 1
320 579.5 m 0
 268.175820376 579.5 253.5 537 253.5 452 c 0
 253.5 371 283.287109375 345.5 321 345.5 c 0
 342.044921875 345.5 352 349 370 372 c 1
 374 323 l 1
 358.35546875 314.619140625 377.716201981 304.027358086 356.733109157 296.376857095 c 0
 339.964907868 290.263118683 321.39187918 285.5 301 285.5 c 0xbc
 235.568573268 285.5 190.5 353 190.5 452 c 0
 190.5 562 227.104482268 636.5 320 636.5 c 0
 408.972368615 636.5 454 551 436 428 c 1
 377 390 l 1
 398 500 363.696836178 579.5 320 579.5 c 0
EndSplineSet
LCarets2: 1 330
Ligature2: "required-ligature-1" uni027E uni2082
EndChar
StartChar: dr_3
Encoding: 65548 -1 33
Width: 700
Flags: W
HStem: -127 58<131.942 243.835> 645 57<86 270>
VStem: 56 64<-58.4316 63.9105> 312 64<7.94551 199.152> 469 95<603.448 707> 500 64<-123 578>
LayerCount: 2
Fore
SplineSet
522 -123 m 1xf0
 661 60 l 1
 671 60 l 1
 671 -32 l 1
 603 -123 l 1
 522 -123 l 1xf0
56 -8 m 3
 56 54 86.5984276852 99.348116884 130 155 c 2
 356.1640625 445 l 2
 433.255859375 544.892578125 463.30859375 627 469 707 c 1
 564 707 l 1xf8
 564 -123 l 1
 500 -123 l 1
 500 578 l 1xf4
 496 578 l 1
 483.97265625 523.564453125 446.030273438 460.486328125 400 401 c 2
 184 125 l 2
 141.85577407 71.149044645 120 34 120 -7 c 3
 120 -43 138 -69 178 -69 c 3
 253 -69 312 4 312 99 c 3
 312 223 226 307.279661017 99 388 c 1
 99 423 l 1
 270 645 l 1
 86 645 l 1
 86 702 l 1
 356 702 l 1
 356 657 l 1
 168 414 l 1
 278 342 376 242 376 99 c 3
 376 -32 290 -127 178 -127 c 3
 96 -127 56 -78 56 -8 c 3
EndSplineSet
LCarets2: 1 350
Ligature2: "required-ligature-1" uni027E uni2083
EndChar
StartChar: e.low
Encoding: 65585 -1 75
Width: 325
VWidth: 1024
Flags: W
HStem: 210 57<-68.525 95.4144>
VStem: -202 63<-123 -3 57 263> 106 63<107.309 196.661>
LayerCount: 2
Fore
SplineSet
106 151 m 3
 106 190 90 210 13 210 c 3
 -50 210 -102 175 -154 118 c 1
 -189 162 l 1
 -122 226 -69 267 20 267 c 3
 113 267 169 240 169 158 c 3
 169 62 89 29 -53 15 c 0
 -124 8 -125 7 -169 -3 c 1
 -169 57 l 1
 -122 65 -115 66 -60 70 c 0
 53 79 106 102 106 151 c 3
-202 -123 m 1
 -202 263 l 1
 -139 263 l 1
 -139 49 -139 -42 -139 -123 c 1
 -202 -123 l 1
237 -110 m 1
 237 -123 l 1
 167 -123 l 1
 84 -36 l 2
 46 4 -16 18 -78 18 c 1
 -74 50 l 1
 -24 57 l 1
 48 53 110 23 153 -22 c 2
 237 -110 l 1
EndSplineSet
EndChar
StartChar: e_t_2
Encoding: 65600 -1 90
Width: 1140
VWidth: 1024
Flags: W
HStem: -127 56<501.95 686.534> 210 57<235.412 394.224> 279 57<574 625.717 963.264 1017.06> 328 66<432.488 505> 328 57<189.7 329.012> 336 58<432.815 505> 574 56<344.242 410.34> 671 56<213.794 295>
VStem: 68 64<439.061 600.345> 103 63<-123 -3 57 263> 268 62<431.502 562.368> 411 63<107.309 192.39> 422 64<431.779 564.965> 758 60<-2.43677 166.33> 898 64<204.887 277.874> 1020 63<199.574 277.772>
LayerCount: 2
Back
SplineSet
458 -22 m 5
 506.1875 -67.9970703125 537.168056403 -63.5 621 -63.5 c 4
 700.769350578 -63.5 759.5 -20.923828125 759.5 58 c 4
 759.5 155.793945312 722.045898438 209.979492188 662.313476562 243.828125 c 5
 691.161132812 280.736328125 l 5
 765.896020957 238.385987289 822.5 184.559077011 822.5 60 c 4
 822.5 -49.1728515625 733.668585667 -120.5 621 -120.5 c 4
 580.283267509 -120.5 538.106903611 -117.686850281 495.61785114 -102.458940714 c 4
 461.623300172 -90.2754271301 421.083984375 -66.625 389 -36 c 5
 351 4 289 18 227 18 c 5
 231 50 l 5
 281 57 l 5
 353 53 415 23 458 -22 c 5
EndSplineSet
Fore
SplineSet
103 -123 m 1xc367
 103 263 l 1
 166 263 l 1
 166 49 166 -42 166 -123 c 1
 103 -123 l 1xc367
411 151 m 3xc337
 411 190 375 210 318 210 c 3
 255 210 203 175 151 118 c 1
 116 162 l 1
 183 226 246 267 325 267 c 3
 418 267 474 231.546394297 474 158 c 3
 474 62 394 29 252 15 c 0
 181 8 180 7 136 -3 c 1
 136 57 l 1
 183 65 190 66 245 70 c 0
 358 79 411 102 411 151 c 3xc337
377 574 m 3
 350 574 330 540 330 504 c 3
 330 451 365 385 431 385 c 3xcbaf
 463 385 479 387 495 394 c 1
 505 394 l 1xd3af
 506 336 l 1xc7af
 491 331 470 328 431 328 c 3
 328 328 268 416 268 504 c 3
 268 576 311 630 377 630 c 3
 447 630 486 566 486 500 c 3
 486 396 401 328 280 328 c 3
 159 328 68 388 68 520 c 3
 68 649 161 714 285 727 c 1
 295 727 l 1
 295 671 l 1
 203 659 132 621 132 520 c 3
 132 428 191 384 280 384 c 3
 368 384 422 425 422 500 c 3xcbaf
 422 541 406 574 377 574 c 3
936 190 m 7
 998 190 1020 202 1020 240 c 7
 1020 265 1009 279 990 279 c 7
 974 279 962 265 962 248 c 7
 962 229 968 211 999 195 c 5
 938 186 l 5
 911 196 898 220 898 253 c 7
 898 304 941 336 990 336 c 7
 1044 336 1083 302 1083 242 c 7
 1083 170 1033 133 950 133 c 7
 788 133 721 229 574 279 c 29
 574 336 l 5
 584 336 l 29xe327
 713 284 835 190 936 190 c 7
443 -9 m 4
 483 -43 526 -71 601 -71 c 4
 691 -71 758 -15 758 81 c 4
 758 171 722 210 662 244 c 5
 691 281 l 5
 795 203 818 166 818 81 c 4
 818 -38 734 -127 601 -127 c 4
 498 -127 452 -86 389 -34 c 4
 340 6 289 18 227 18 c 5
 231 50 l 5
 281 57 l 5
 353 53 403 25 443 -9 c 4
EndSplineSet
Ligature2: "reverse-too-1" e t_2
LCarets2: 1 0
EndChar
StartChar: e_t_2.low
Encoding: 65601 -1 91
Width: 835
VWidth: 1024
Flags: W
HStem: -127 56<196.95 381.534> 210 57<-68.525 95.4144> 279 57<269 320.717 658.264 712.06>
VStem: -202 63<-123 -3 57 263> 106 63<107.309 196.661> 453 60<-2.43677 166.33> 593 64<204.887 277.874> 715 63<199.574 277.772>
LayerCount: 2
Fore
SplineSet
631 190 m 3
 693 190 715 202 715 240 c 3
 715 265 704 279 685 279 c 3
 669 279 657 265 657 248 c 3
 657 229 663 211 694 195 c 1
 633 186 l 1
 606 196 593 220 593 253 c 3
 593 304 636 336 685 336 c 3
 739 336 778 302 778 242 c 3
 778 170 728 133 645 133 c 3
 483 133 416 229 269 279 c 25
 269 336 l 1
 279 336 l 25
 408 284 530 190 631 190 c 3
138 -9 m 0
 178 -43 221 -71 296 -71 c 0
 386 -71 453 -15 453 81 c 0
 453 171 417 210 357 244 c 1
 386 281 l 1
 490 203 513 166 513 81 c 0
 513 -38 429 -127 296 -127 c 0
 193 -127 147 -86 84 -34 c 0
 35 6 -16 18 -78 18 c 1
 -74 50 l 1
 -24 57 l 1
 48 53 98 25 138 -9 c 0
106 151 m 3
 106 190 90 210 13 210 c 3
 -50 210 -102 175 -154 118 c 1
 -189 162 l 1
 -122 226 -69 267 20 267 c 3
 113 267 169 240 169 158 c 3
 169 62 89 29 -53 15 c 0
 -124 8 -125 7 -169 -3 c 1
 -169 57 l 1
 -122 65 -115 66 -60 70 c 0
 53 79 106 102 106 151 c 3
-202 -123 m 1
 -202 263 l 1
 -139 263 l 1
 -139 49 -139 -42 -139 -123 c 1
 -202 -123 l 1
EndSplineSet
LCarets2: 1 0
Ligature2: "reverse-too-1" e.low t_2
EndChar
StartChar: faa
Encoding: 65597 -1 87
Width: 510
VWidth: 1024
Flags: W
HStem: -127 57<199.397 304.124> 243 57<65 152.902> 706 56<68.3015 153.534>
VStem: -7 64<586.272 694.179> 114 63<-46.645 73.8635> 164 64<597.737 696.371> 187 64<331.424 426.198> 351 63<-7.84198 702>
LayerCount: 2
Back
SplineSet
-150 292 m 21x7c
 -104 340 -38.0419921875 444.333984375 38.78515625 542 c 4
 113.40497324 636.859959797 195 727.92578125 287 762 c 5
 297 762 l 5
 297 699 l 5
 191 654.244140625 79 502 10 408 c 5
 13 406 l 5
 32 413 56.958984375 413 86 413 c 7x7c
 196.453125 413 306.975585938 400 393 400 c 7
 465.25 400 490 412 490 450 c 7
 490 475.268554688 472.4765625 489 457 489 c 7
 441.478515625 489 432 471.985351562 432 458 c 7
 432 439 438 421 469 405 c 5
 408 396 l 5
 381 406 368 430 368 463 c 7
 368 524.134765625 426.197265625 546 455 546 c 7
 499.243164062 546 553 519.610351562 553 452 c 7
 553 374.993164062 500.08203125 343 407 343 c 7xbc
 296.451171875 343 180.307617188 356 76 356 c 7
 35.9599609375 356 -2.3935546875 354.668945312 -32 337 c 5
 -60.732421875 301.981445312 -93 263 -120 237 c 5
 -150 292 l 21x7c
-435 355 m 3
 -435 326 -416 299 -379 299 c 3
 -340 299 -328 328.392578125 -328 360 c 3
 -328 472.004882812 -472 501.68359375 -472 630 c 3
 -472 702.02734375 -414 762 -336 762 c 1
 -316 762 l 1
 -316 705 l 1
 -384 702 -408 664.045898438 -408 620 c 3
 -408 547.967773438 -264 466.041015625 -264 367 c 3
 -264 287.786132812 -309 243 -377 243 c 3
 -445.4140625 243 -499 289.715820312 -499 366 c 3
 -499 438.088867188 -435.669921875 496.630859375 -375.563476562 548 c 0
 -320.1875 595.326171875 -223 669 -172 702 c 1
 -102 702 l 1
 -102 148 l 2
 -102 -50 -160 -127 -262 -127 c 3
 -365.581054688 -127 -402 -55 -402 16 c 3
 -402 90 -353.978515625 129.078125 -288.334960938 173.153320312 c 0
 -204.015625 229.767578125 -152 282 -48 420 c 1
 -38 420 l 1
 -38 333 l 1
 -126 227 -169.776367188 177.521484375 -240.665039062 132.846679688 c 0
 -294.392578125 99.390625 -339 72 -339 15 c 3
 -339 -23 -320.590820312 -70 -261 -70 c 3
 -197 -70 -165 -10 -165 142 c 2
 -165 626 l 1
 -169 626 l 1
 -208 602 -264.44921875 558.50390625 -308.470703125 522 c 0
 -386 457.7109375 -435 421.966796875 -435 355 c 3
EndSplineSet
Fore
SplineSet
-114 329 m 1xf5
 -85.4287109375 364 -37 431 5 476 c 0
 56.8603515625 531.565429688 164 583.033203125 164 650 c 3xf5
 164 679 148 706 111 706 c 3
 75 706 57 676.607421875 57 645 c 3
 57 532.995117188 251 507.056640625 251 385 c 3
 251 312.97265625 184.470703125 243 85 243 c 1
 65 243 l 1
 65 300 l 1
 157.782226562 303 187 338.954101562 187 383 c 3
 187 455.032226562 -7 511.984375 -7 643 c 3
 -7 718.213867188 51 762 114 762 c 3xfb
 182.4140625 762 228 728.284179688 228 652 c 3
 228 579.911132812 147.278320312 511.163085938 74.5634765625 457 c 0
 11.0263671875 409.673828125 -13 339 -112 239 c 1
 -114 329 l 1xf5
414 702 m 1
 414 148 l 2
 414 -50 356 -127 254 -127 c 3
 150.418945312 -127 114 -55 114 16 c 3
 114 90 162.021484375 129.078125 227.665039062 173.153320312 c 0
 311.984375 229.767578125 364 282 468 420 c 1
 478 420 l 1
 478 333 l 1
 390 227 346.223632812 177.521484375 275.334960938 132.846679688 c 0
 221.607421875 99.390625 177 72 177 15 c 3xf9
 177 -23 195.409179688 -70 255 -70 c 3
 319 -70 351 6.52734375 351 142 c 2
 351 702 l 1
 414 702 l 1
EndSplineSet
EndChar
StartChar: faato
Encoding: 65596 -1 86
Width: 325
Flags: W
HStem: 343 57<185.313 487.082> 356 57<17.5925 306.456> 489 57<438.934 491.76> 699 63<311.086 352>
VStem: 373 64<414.887 487.604> 495 63<410.643 486.12>
LayerCount: 2
Fore
SplineSet
-145 292 m 1x7c
 -96.5633677502 340 -13.5517578125 479.401367188 76 570 c 0
 155.833984375 657.99609375 253.085024167 727.92578125 342 762 c 1
 352 762 l 1
 352 699 l 1
 201.110654683 629.472701094 110 524 15 408 c 1
 18 406 l 1
 37 413 61.958984375 413 91 413 c 3x7c
 201.453125 413 311.975585938 400 398 400 c 3
 470.25 400 495 412 495 450 c 3
 495 475.268554688 477.4765625 489 462 489 c 3
 446.478515625 489 437 471.985351562 437 458 c 3
 437 439 443 421 474 405 c 1
 413 396 l 1
 386 406 373 430 373 463 c 3
 373 524.134765625 431.197265625 546 460 546 c 3
 504.243164062 546 558 519.610351562 558 452 c 3
 558 374.993164062 505.08203125 343 412 343 c 3xbc
 301.451171875 343 185.307617188 356 81 356 c 3
 40.9599609375 356 2.6064453125 354.668945312 -27 337 c 1
 -55.732421875 301.981445312 -88 263 -115 237 c 1
 -145 292 l 1x7c
EndSplineSet
EndChar
StartChar: faatotoo
Encoding: 65599 -1 89
Width: 680
Flags: W
HStem: -107 21G<406.976 531.541> 39 57<503.321 557.14> 66 52.5<42 115.79> 275 54<343.976 440> 283.5 57<442.551 522> 356 57<17.5925 190.086> 699 63<317.898 362>
VStem: 438 64<-35.1135 37.897> 560 63<-40.4276 37.7027>
LayerCount: 2
Fore
SplineSet
416 414 m 1x8780
 416 424 l 1
 485 424 l 1
 601 230 l 1
 601 220 l 1
 541 220 l 1
 416 414 l 1x8780
490 -107 m 3
 323.952148438 -107 200.307617188 66 96 66 c 0
 89.283203125 66 84.5107421875 65.990234375 81.1240234375 65.990234375 c 0
 68.2451171875 63.107421875 55.216796875 61.5 42 61.5 c 1
 42 118.5 l 1xa780
 64.4609375 118.5 94.431640625 128.349609375 128.577148438 147.020507812 c 0
 222.04296875 198.127929688 292.498046875 283.288085938 396.85546875 317.873046875 c 0
 441.943359375 332.815429688 477.178710938 340.5 522 340.5 c 1
 522 283.5 l 1
 495.212890625 283.5 460.102539062 277.303710938 420.04296875 264.02734375 c 0
 323.563476562 232.0546875 262.393554688 155.521484375 170.7109375 106.91015625 c 1
 170.7109375 102.91015625 l 1
 256 80 375.142578125 -50 476 -50 c 3
 538.25 -50 560 -38 560 0 c 3
 560 25.2685546875 549.4765625 39 530 39 c 3
 514.478515625 39 502 24.9853515625 502 8 c 3
 502 -11 508 -29 539 -45 c 1
 478 -54 l 1
 451 -44 438 -20 438 13 c 3
 438 64.134765625 481.197265625 96 530 96 c 3xcf80
 584.243164062 96 623 61.6103515625 623 2 c 3
 623 -70.0068359375 573.08203125 -107 490 -107 c 3
-145 292 m 17
 -99 340 -2.26171875 491.401367188 82.78515625 582 c 4
 165.388671875 669.99609375 260 727.92578125 352 762 c 1
 362 762 l 1
 362 699 l 5
 199 628 104 541 15 408 c 5
 18 406 l 1
 37 413 61.958984375 413 91 413 c 3
 201.453125 413 343.975585938 329 440 329 c 1
 442 275 l 3x9780
 311.451171875 275 185.307617188 356 81 356 c 3
 40.9599609375 356 2.6064453125 354.668945312 -27 337 c 1
 -55.732421875 301.981445312 -88 263 -115 237 c 1
 -145 292 l 17
EndSplineSet
LCarets2: 1 0
Ligature2: "double-too-1" faato t_2.low
EndChar
StartChar: g_2
Encoding: 65543 -1 22
Width: 700
Flags: W
HStem: -127 57<266.098 406.134> -44 57<521.168 604.195> 160 57<257.386 380.446> 327 57<315.232 469.62> 489 57<143.269 485.947> 669 57<315.777 458.234>
VStem: 72 64<332 722> 158 62<-23.7392 120.711> 200 64<437.659 613.696> 474 64<79.3463 332> 486 64<546 641.024> 658 10<135.882 147>
LayerCount: 2
Back
SplineSet
377 574 m 7
 350.447265625 574 330 539.865234375 330 504 c 7
 330 451.2890625 364.985351562 393 421 393 c 7
 453 393 479 395 495 402 c 5
 505 402 l 5
 506 344 l 5
 484 337 460 336 421 336 c 7
 328.205078125 336 268 416.375976562 268 504 c 7
 268 576.049804688 311.305664062 630 377 630 c 7
 447.1640625 630 486 565.525390625 486 500 c 7
 486 396.102539062 400.546875 336 280 336 c 7
 158.634765625 336 68 392.209960938 68 524 c 7
 68 653.033203125 161.365234375 714.4921875 285 727 c 5
 295 727 l 5
 295 671 l 5
 203.34765625 658.501953125 132 625.401367188 132 524 c 7
 132 431.516601562 191.458984375 392 280 392 c 7
 367.7734375 392 422 425.302734375 422 500 c 7
 422 540.946289062 405.869140625 574 377 574 c 7
411 161 m 7
 411 200 395 233 318 233 c 7
 255 233 203 197 151 140 c 5
 116 184 l 5
 183 248 236 290 325 290 c 7
 418 290 474 250 474 168 c 7
 474 72 394 29 252 15 c 4
 181 8 180 7 136 -3 c 5
 136 57 l 5
 183 65 190 66 245 70 c 4
 358 79 411 112 411 161 c 7
103 -123 m 5
 103 286 l 5
 166 286 l 5
 166 72 166 -42 166 -123 c 5
 103 -123 l 5
542 -110 m 5
 542 -123 l 5
 472 -123 l 5
 389 -36 l 6
 351 4 289 18 227 18 c 5
 231 50 l 5
 281 57 l 5
 353 53 415 23 458 -22 c 6
 542 -110 l 5
EndSplineSet
Fore
SplineSet
538 400 m 1xfed0
 538 108 l 2
 538 -29 458 -127 330 -127 c 0
 225 -127 158 -44 158 46 c 3
 158 142 222 217 320 217 c 0
 410 217 453 144 487 90 c 0
 504 62 530 13 562 13 c 0
 593 13 612 25 658 147 c 1
 668 147 l 1
 668 27 l 1
 648 -12 619 -44 572 -44 c 0
 474 -44 451 68 403 120 c 0
 383 142 347 160 320 160 c 0
 259 160 220 114 220 46 c 3
 220 -21 267 -70 330 -70 c 0
 425 -70 474 3 474 108 c 2
 474 332 l 1xff50
 469 335 l 1
 445 329 409 327 387 327 c 3
 278.884765625 327 200 397.963867188 200 522 c 3
 200 644 273 726 384 726 c 3
 473 726 550 686.084960938 550 572 c 3
 550 545 548 508 546 489 c 9
 200 489 l 2
 166 489 138 482 132 441 c 1
 88 466 l 1
 101 512 128 546 210 546 c 2
 485 546 l 17
 486 558 486 568 486 582 c 3xfeb0
 486 644 441 669 384 669 c 3
 307 669 264 610 264 522 c 3
 264 432 315 384 387 384 c 3
 422 384 459 392 472 400 c 1
 538 400 l 1xfed0
72 722 m 1
 136 722 l 1
 136 332 l 1
 72 332 l 1
 72 722 l 1
EndSplineSet
LCarets2: 1 350
Ligature2: "required-ligature-1" g uni2082
EndChar
StartChar: g_2_t_2
Encoding: 65602 -1 92
Width: 1270
Flags: W
HStem: -127 57<266.098 406.134 654.267 821.573> 160 57<257.386 381.244> 279 57<704 755.717 1093.26 1147.06> 327 57<315.232 469.62> 489 57<143.269 485.947> 669 57<315.777 458.234>
VStem: 72 64<332 722> 158 62<-23.7392 120.711> 200 64<437.659 613.696> 474 64<3 332> 486 64<546 641.024> 888 60<-2.43677 166.33> 1028 64<204.887 277.874> 1150 63<199.574 277.772>
LayerCount: 2
Fore
SplineSet
1066 190 m 3xee1c
 1128 190 1150 202 1150 240 c 3
 1150 265 1139 279 1120 279 c 3
 1104 279 1092 265 1092 248 c 3
 1092 229 1098 211 1129 195 c 1
 1068 186 l 1
 1041 196 1028 220 1028 253 c 3
 1028 304 1071 336 1120 336 c 3
 1174 336 1213 302 1213 242 c 3
 1213 170 1163 133 1080 133 c 3
 918 133 851 229 704 279 c 25
 704 336 l 1
 714 336 l 25
 843 284 965 190 1066 190 c 3xee1c
741 -71 m 4
 821 -71 888 -15 888 81 c 0
 888 171 852 210 792 244 c 1
 821 281 l 1
 925 203 948 166 948 81 c 0
 948 -38 864 -127 741 -127 c 4
 618 -127 554 -43 403 120 c 0
 382.794410935 141.811331242 347 160 320 160 c 0
 259 160 220 114 220 46 c 3
 220 -21 267 -70 330 -70 c 0
 425 -70 474 3 474 108 c 2
 474 332 l 1xdf5c
 469 335 l 1
 445 329 409 327 387 327 c 3
 278.884765625 327 200 397.963867188 200 522 c 3
 200 644 273 726 384 726 c 3
 473 726 550 686.084960938 550 572 c 3
 550 545 548 508 546 489 c 9
 200 489 l 2
 166 489 138 482 132 441 c 1
 88 466 l 1
 101 512 128 546 210 546 c 2
 485 546 l 17
 486 558 486 568 486 582 c 3
 486 644 441 669 384 669 c 3
 307 669 264 610 264 522 c 3xdebc
 264 432 315 384 387 384 c 3
 422 384 459 392 472 400 c 1
 538 400 l 1
 538 108 l 2
 538 -29 458 -127 330 -127 c 0
 225 -127 158 -44 158 46 c 3xdf5c
 158 142 222 217 320 217 c 0
 410 217 462.760908346 143.804300661 507 90 c 0
 581 0 646 -71 741 -71 c 4
72 722 m 1
 136 722 l 1
 136 332 l 1
 72 332 l 1
 72 722 l 1
EndSplineSet
Ligature2: "reverse-too-1" g_2 t_2
EndChar
StartChar: gr_1.high
Encoding: 65579 -1 69
Width: 325
VWidth: 1024
Flags: W
HStem: 343 57<319.441 413.277> 669 57<254.067 390.845>
VStem: 96 63<347 722> 241 59<420.597 512.07> 443 63<488.7 612.864> 450 66<790.631 840> 557 63<615 726.821>
LayerCount: 2
Fore
SplineSet
450 840 m 1xf6
 516 840 l 1
 522 786 559 762 620 762 c 1
 620 615 l 1
 557 615 l 1
 557 721 l 1
 508 732 458 762 450 830 c 1
 450 840 l 1xf6
506 516 m 6xfa
 506 433 460 343 372 343 c 7
 280 343 241 398 241 467 c 7
 241 501 251 542 268 562 c 5
 342 562 l 5
 594 409 l 5
 594 343 l 5
 584 343 l 5
 314 513 l 5
 303.79296875 501.8359375 300 486.131835938 300 469 c 7
 300 430 332 400 372 400 c 7
 414 400 443 457 443 516 c 6
 443 538 l 6
 443 599 400 669 332 669 c 7
 265 669 199.392578125 623 146.264648438 529.18359375 c 5
 107.735351562 556.81640625 l 5
 169.83203125 663 240 726 337 726 c 7
 447 726 506 636 506 538 c 6
 506 516 l 6xfa
159 347 m 1
 96 347 l 1
 96 722 l 1
 159 722 l 25
 159 347 l 1
EndSplineSet
EndChar
StartChar: gr_1.low
Encoding: 65580 -1 70
Width: 325
VWidth: 1024
Flags: W
HStem: -127 57<-5.55858 88.2772> 210 57<-64.0746 65.845>
VStem: -229 63<-123 263> -84 59<-49.4028 42.0736> 118 63<18.7 153.864>
LayerCount: 2
Fore
SplineSet
181 46 m 2
 181 -37 135 -127 47 -127 c 3
 -45 -127 -84 -72 -84 -3 c 3
 -84 31 -74 72 -57 92 c 1
 17 92 l 1
 269 -61 l 1
 269 -127 l 1
 259 -127 l 1
 -11 43 l 1
 -21 32 -25 16 -25 -1 c 3
 -25 -40 7 -70 47 -70 c 3
 89 -70 118 -13 118 46 c 2
 118 79 l 2
 118 140 75 210 7 210 c 3
 -60 210 -126 153 -179 59 c 1
 -217 87 l 1
 -155 193 -85 267 12 267 c 3
 122 267 181 177 181 79 c 2
 181 46 l 2
-166 -123 m 1
 -229 -123 l 1
 -229 263 l 1
 -166 263 l 25
 -166 -123 l 1
EndSplineSet
EndChar
StartChar: gr_1_t_2.low
Encoding: 65603 -1 93
Width: 875
VWidth: 1024
Flags: W
HStem: -127 57<-5.55858 88.2772 235.562 423.108> 210 57<-64.0746 65.845> 279 57<309 360.717 698.264 752.06>
VStem: -229 63<-123 263> -84 59<-49.4028 42.0736> 118 63<22.5516 153.864> 493 60<-2.43677 166.33> 633 64<204.887 277.874> 755 63<199.574 277.772>
LayerCount: 2
Fore
SplineSet
671 190 m 3
 733 190 755 202 755 240 c 3
 755 265 744 279 725 279 c 3
 709 279 697 265 697 248 c 3
 697 229 703 211 734 195 c 1
 673 186 l 1
 646 196 633 220 633 253 c 3
 633 304 676 336 725 336 c 3
 779 336 818 302 818 242 c 3
 818 170 768 133 685 133 c 3
 523 133 456 229 309 279 c 25
 309 336 l 1
 319 336 l 25
 448 284 570 190 671 190 c 3
180 -9 m 0
 220 -43 261 -71 336 -71 c 0
 426 -71 493 -15 493 81 c 0
 493 171 457 210 397 244 c 1
 426 281 l 1
 530 203 553 166 553 81 c 0
 553 -38 469 -127 336 -127 c 0
 233 -127 182 -86 119 -34 c 0
 70 6 -11 43 -11 43 c 1
 -21 32 -25 16 -25 -1 c 3
 -25 -40 7 -70 47 -70 c 3
 89 -70 118 -13 118 46 c 2
 118 79 l 2
 118 140 75 210 7 210 c 3
 -60 210 -126 153 -179 59 c 1
 -217 87 l 1
 -155 193 -85 267 12 267 c 3
 122 267 181 177 181 79 c 2
 181 46 l 2
 181 -37 135 -127 47 -127 c 3
 -45 -127 -84 -72 -84 -3 c 3
 -84 31 -74 72 -57 92 c 1
 17 92 l 1
 17 92 140 25 180 -9 c 0
-166 -123 m 1
 -229 -123 l 1
 -229 263 l 1
 -166 263 l 25
 -166 -123 l 1
EndSplineSet
LCarets2: 1 0
Ligature2: "reverse-too-1" gr_1.low t_2
EndChar
StartChar: gr_2
Encoding: 65550 -1 35
Width: 580
Flags: W
HStem: -103 57<252 306 397 512> 62 56<226.12 351.25> 156 58<222.243 433.28> 644 54<96 388>
VStem: 100 64<-103 -23 24 227 273 332> 243 62<470.202 555.709> 358 62<-33.4579 54.0996> 452 64<233.715 305.06>
LayerCount: 2
Back
SplineSet
677 10 m 7x6fc0
 677 -73 622.124023438 -107 521 -107 c 7
 386 -107 275 61 93 61 c 7
 83 61 75 60 64 56 c 5
 53 56 l 5
 53 114 l 5
 66 117 80 118 93 118 c 7
 300.040039062 118 425 -50 519 -50 c 7x9fc0
 591 -50 615 -15 615 14 c 7
 615 36 599 52 582 52 c 7
 568 52 552 40 552 18 c 7
 552 -3 564 -21 597 -33 c 5
 586 -47 578 -52 539 -53 c 5
 502 -35.4931640625 489 -16 489 23 c 7
 489 71 533 108 578 108 c 7
 638 108 677 71 677 10 c 7x6fc0
317 346 m 4
 389 346 454 355 518 404 c 5
 528 404 l 5
 528 331 l 5
 506 306 488 287 463 267 c 4
 350 173 254 104 133 65 c 5
 112 116 l 5
 201 143 320 226 399 294 c 5
 397 298 l 5
 377 290 338 288 306 288 c 4
 243 288 186 330 186 405 c 4
 186 515 268 567 385 627 c 5
 382 630 l 5
 225 630 l 6
 185 630 160 604 160 563 c 5
 98 563 l 5
 98 573 l 5
 102 641 148 688 235 688 c 6
 424 688 l 6
 473 688 512 697 553 720 c 5
 502 804 l 5
 502 814 l 5
 568 814 l 5
 684 620 l 5
 684 610 l 5
 618 610 l 5
 581 673 l 5
 545 649 495 621 451 598 c 4
 338 540 248 494 248 405 c 4
 248 370 283 346 317 346 c 4
EndSplineSet
Fore
SplineSet
252 -103 m 1
 252 -46 l 1
 512 -46 l 1
 512 -103 l 1
 252 -103 l 1
516 277 m 0
 516 185 424 156 340 156 c 0
 261 156 186 180 121 227 c 1
 155 273 l 1
 216 229 273 214 340 214 c 0
 394 214 452 221 452 277 c 0
 452 334 324 297 324 377 c 0
 324 430 374 441 412 456 c 1
 443 416 l 1
 401 403 395 398 393 388 c 1
 455 373 516 359 516 277 c 0
96 698 m 1
 488 698 l 1
 487 607 l 1
 347 584 305 558 305 509 c 3
 305 475 336 460 365 460 c 3
 417 460 442 481 472 504 c 1
 482 504 l 1
 482 436 l 1
 455 418 419 402 353 402 c 3
 288 402 243 442 243 506 c 3
 243 574 300 623 391 641 c 1
 388 644 l 1
 96 644 l 1
 96 698 l 1
100 332 m 1
 164 332 l 1
 164 -103 l 1
 100 -103 l 1
 100 332 l 1
132 24 m 1
 174 83 239 118 305 118 c 0
 372 118 420 84 420 18 c 0
 420 -11.3994490489 411.752929688 -29.818359375 397.04296875 -43 c 1
 397 -83 l 1
 306 -46 l 1
 336 -46 358 -14 358 16 c 0
 358 43 339 62 301 62 c 0
 257 62 203 41 161 -23 c 1
 132 24 l 1
EndSplineSet
LCarets2: 1 290
Ligature2: "required-ligature-1" uni0281 uni2082
EndChar
StartChar: h.low
Encoding: 65583 -1 73
Width: 325
VWidth: 1024
Flags: W
HStem: -119 57<-83 -24 39 100> -93 31<-24 39> 99 57<-147.986 -43.3309> 209 57<63.2841 159.285>
VStem: -249 63<-123 263> -24 63<-93 80.5082> 186 63<-123 179.955>
LayerCount: 2
Fore
SplineSet
100 -119 m 5xbe
 -83 -119 l 5
 -83 -62 l 5
 100 -62 l 29
 100 -119 l 5xbe
-186 -123 m 5
 -249 -123 l 5
 -249 263 l 5
 -186 263 l 5
 -186 -123 l 5
186 -123 m 5
 186 80 l 6
 186 164 163 209 108 209 c 7
 70 209 39 172 39 116 c 4
 39 -74 39 97 39 -93 c 5
 -24 -93 l 5x7e
 -24 -2 l 6
 -24 72 -48 99 -96 99 c 4
 -118 99 -165 76 -214 16 c 5
 -246 53 l 5
 -186 115 -138 156 -91 156 c 4
 -61 156 -37 148 -22 131 c 5
 -18 133 l 5
 -9 226 49 266 112 266 c 7
 195 266 249 220 249 90 c 6
 249 -123 l 5
 186 -123 l 5
EndSplineSet
EndChar
StartChar: h_t_1
Encoding: 65589 -1 79
Width: 770
VWidth: 0
Flags: W
HStem: -119 57<242 301 364 405> -93 31<301 364> 168 57<175.824 275.426> 279 57<428.345 596.49> 387 60<75 296.924> 644 54<538 660>
VStem: 76 63<-123 332> 301 63<-93 141.34> 475 63<-123 428 510 641> 651 63<-123 221.25>
LayerCount: 2
Fore
SplineSet
405 -119 m 5xbfc0
 242 -119 l 1
 242 -62 l 1
 405 -62 l 29
 405 -119 l 5xbfc0
139 -123 m 1
 76 -123 l 1
 76 332 l 1
 139 332 l 1
 139 -123 l 1
651 -123 m 1
 651 110 l 2
 651 244 598 279 503 279 c 3
 425 279 364 220 364 144 c 0
 364 -45.6669921875 364 96.6669921875 364 -93 c 1
 301 -93 l 1x7fc0
 301 48 l 2
 301 122 277 168 229 168 c 0
 207 168 159.797851562 145.282226562 111.280273438 84.9130859375 c 1
 78.7197265625 122.086914062 l 1
 139 184 187 225 234 225 c 0
 263.575195312 225 288.466796875 216.883789062 303 199.623046875 c 1
 307 201.623046875 l 1
 336 285 414.287109375 336 507 336 c 3
 629.565429688 336 714 280 714 120 c 6
 714 -123 l 1
 651 -123 l 1
538 510 m 1
 616 552 645 599 660 644 c 1
 538 641 l 1
 538 510 l 1
538 446 m 1
 538 -123 l 1
 516 -123 497 -123 475 -123 c 1
 475 428 l 1
 405 403 334 387 75 387 c 1
 75 407 75 427 75 447 c 1
 296 447 400 459 475 489 c 1
 475 553 475 634 475 698 c 1
 734 698 l 1
 734 642 l 1
 698 567 648 498 538 446 c 1
EndSplineSet
LCarets2: 1 0
Ligature2: "het-1" h t_1
Ligature2: "het-1" h t
EndChar
StartChar: j_H_2
Encoding: 65588 -1 78
Width: 940
Flags: W
HStem: -119 47<149 213> -99 59<449 889> 52 58<653.95 814.257> 317 68<736.283 822> 343 57<147.094 329.666> 629 57<260.543 386.872>
VStem: 80 196<-119 87> 84 63<-72 -3.85474 404.526 513.545 566.366 722> 386 63<-119 -99 -40 162> 413 63<465.422 601.528> 564 62<138.496 242.742 396.623 472.041>
LayerCount: 2
Back
SplineSet
897 607 m 1
 734 580 678 535 678 473 c 3
 678 428 715.795898438 400 777 400 c 3
 806 400 839 405 862 415 c 1
 872 415 l 1
 872 347 l 1
 718 321.700195312 676 267.791015625 676 216 c 3
 676 174 717.522460938 140 767 140 c 3
 829.12890625 140 870 161 900 184 c 1
 910 184 l 1
 910 116 l 1
 883 98 832.12109375 82 766 82 c 3
 689.580078125 82 614 127.995117188 614 213 c 3
 614 280.05859375 646 324.845703125 714 351 c 1
 714 356 l 1
 661 365 616 405 616 473 c 3
 616 557 692 621 801 641 c 1
 798 644 l 1
 539 644 l 1
 539 -40 l 1
 979 -42 l 1
 979 -99 l 1
 539 -99 l 1
 539 -119 l 1
 476 -119 l 1
 476 -119 476 634 476 698 c 1
 898 698 l 1
 897 607 l 1
263 347 m 25xe2
 201 347 l 1
 201 357 l 25
 297 520 l 1
 365 520 l 25
 263 347 l 25xe2
550 50 m 3
 550 -33 547 -78 543 -123 c 1
 480 -123 l 1
 480 -113 l 1
 486 -72 487 -29 487 42 c 3
 487 144 443.138671875 195 343 195 c 3
 262.83984375 195 182 100 169 -72 c 9
 323 -72 l 25
 323 520 l 1
 386 520 l 25xe6
 386 -119 l 17
 100 -119 l 1
 100 -79 l 1xea
 117 145 228 252 357 252 c 3
 489 252 550 168.004882812 550 50 c 3
481 347 m 25
 481 488 l 18
 481 622 440 669 362 669 c 3
 305 669 209.797851562 646.282226562 141.280273438 565.913085938 c 1
 108.719726562 603.086914062 l 1
 179 685 288 726 375 726 c 3
 485 726 544 664 544 488 c 10
 544 347 l 25
 481 347 l 25
147 347 m 5xf2
 84 347 l 5
 84 722 l 5
 147 722 l 29
 147 347 l 5xf2
EndSplineSet
Fore
SplineSet
449 222 m 25xa6a0
 449 -40 l 17
 889 -42 l 1
 889 -99 l 1
 449 -99 l 1x66a0
 449 -119 l 1
 386 -119 l 1
 386 162 l 17
 312 154 159.88372093 72 149 -72 c 1
 213 -72 l 25
 213 300 l 1
 276 300 l 25
 276 -119 l 17
 80 -119 l 1
 80 -79 l 1
 92.5982142857 87 288 222 417 222 c 3
 449 222 l 25xa6a0
153 167 m 25
 91 167 l 1
 91 177 l 25
 187 300 l 1
 255 300 l 25
 153 167 l 25
419 439 m 1
 524 508 628 613 815 634 c 1
 825 634 l 1
 824 577 l 1
 661 550 628 505 628 443 c 3
 628 398 665.795898438 370 727 370 c 3
 756 370 789 375 812 385 c 1
 822 385 l 1
 822 317 l 1x3420
 668 291.700195312 626 237.791015625 626 186 c 3
 626 144 667.522460938 110 717 110 c 3
 779.12890625 110 820 131 850 154 c 1
 860 154 l 1
 860 86 l 1
 833 68 782.12109375 52 716 52 c 3
 639.580078125 52 564 97.9951171875 564 183 c 3
 564 250.05859375 596 294.845703125 664 321 c 1
 664 326 l 1
 611 335 566 375 566 443 c 3
 566 456 567 463 568 471 c 1
 565 474 l 1
 516 445 439 343 307 343 c 1x2c20
 419 439 l 1
84 354 m 1x2d60
 84 722 l 1
 147 722 l 1
 147 566.366438366 l 1
 199.64923973 636.129930835 259.833984375 686 337 686 c 0
 427.473632812 686 476 625.57421875 476 518 c 0
 476 397.448242188 409.479928942 343 307 343 c 0
 197.807230165 343 165.989960165 348.556377185 84 354 c 1x2d60
147 480.477671502 m 1
 147 404.525640865 l 1
 182.970903569 403.045788888 245.698808541 400 307 400 c 0
 380.533475988 400 413 435.020507812 413 518 c 0
 413 579.6875 391.622070312 629 332 629 c 0
 265.30859375 629 199.997341975 573.42302644 147 480.477671502 c 1
EndSplineSet
Ligature2: "janl-1" j H_2
EndChar
StartChar: k_2
Encoding: 65545 -1 27
Width: 580
VWidth: 1024
Flags: W
HStem: -127 58<195.789 406.855> -99 68<392.225 465> 284 60<285.239 391> 559 57<179.577 365.184>
VStem: 60 63<2.18892 169.409> 72 63<386.428 516.443> 380 66<750.631 800> 487 63<575 686.821>
LayerCount: 2
Fore
SplineSet
380 800 m 1x33
 446 800 l 1
 452 746 489 722 550 722 c 1
 550 575 l 1
 487 575 l 1
 487 681 l 1
 438 692 388 722 380 790 c 1
 380 800 l 1x33
123 86.9599609375 m 3xbb
 123 -13.1552734375 189.497070312 -69 284 -69 c 3xbb
 350.84765625 -69 397.923828125 -53 445 -31 c 1
 465 -31 l 1
 465 -99 l 1x7b
 413.154296875 -117 345.043945312 -127 281 -127 c 3
 151.329101562 -127 60 -59.2119140625 60 85.0400390625 c 3xbb
 60 188.17578125 125 249.124842106 199 286 c 1
 199 291 l 1
 127 303.443359375 72 363.469726562 72 441 c 0
 72 554.040039062 153 616 267 616 c 3
 333 616 375 605 413 584 c 1
 413 521 l 1
 393 521 l 1
 360 544 320 559 257 559 c 3
 179 559 135 514.008789062 135 450 c 0xb7
 135 397.418945312 172.556640625 336 279 336 c 0
 317.040039062 336 346.904296875 338.609375 379 344 c 1
 391 344 l 1
 391 284 l 1
 209 260.322540209 123 197.041992188 123 86.9599609375 c 3xbb
EndSplineSet
Substitution2: "low-1" k_2.low
Substitution2: "high-1" k_2.high
LCarets2: 1 290
Ligature2: "required-ligature-1" k uni2082
EndChar
StartChar: k_2.high
Encoding: 65581 -1 71
Width: 325
VWidth: 1024
Flags: W
HStem: 333 58<177.265 495.982> 357 63<435.664 535> 524 55<321.231 431> 652 63<310.069 443> 670 57<183.029 441.955>
VStem: 90 63<412.993 479.054> 102 63<595.858 650.996> 440 66<750.631 800> 547 63<575 686.821>
LayerCount: 2
Fore
SplineSet
440 800 m 1x2180
 506 800 l 1
 512 746 549 722 610 722 c 1
 610 575 l 1
 547 575 l 1
 547 681 l 1
 498 692 448 722 440 790 c 1
 440 800 l 1x2180
153 441.671875 m 3x2d80
 153 401.590820312 239.497070312 391 334 391 c 3xad80
 406.84765625 391 471.923828125 401 515 420 c 1
 535 420 l 1
 535 357 l 1x6580
 483.154296875 339 395.043945312 333 331 333 c 3
 189.329101562 333 90 348.3515625 90 435.328125 c 3xa580
 90 493.5234375 140 528.125 199 536 c 1
 199 541 l 1
 141 550.443359375 102 579.079101562 102 623.349609375 c 0
 102 702.477539062 193 727 307 727 c 3xab80
 373 727 405 721 443 715 c 1
 443 652 l 1
 423 652 l 1x3380
 389 662 360 670 297 670 c 3
 209 670 165 649.456054688 165 623.650390625 c 0x2b80
 165 591.842773438 232.556640625 571 319 571 c 0
 367.040039062 571 386.904296875 573.609375 419 579 c 1
 431 579 l 1
 431 524 l 1
 185 512 153 478.729492188 153 441.671875 c 3x2d80
EndSplineSet
EndChar
StartChar: k_2.low
Encoding: 65582 -1 72
Width: 325
VWidth: 1024
Flags: W
HStem: -127 58<-140.948 195.082> -103 63<130.75 235> 64 55<11.2514 151> 192 63<10.5486 178> 210 57<-128.479 176.946>
VStem: -230 63<-44.684 16.4023> -208 63<133.029 190.519>
LayerCount: 2
Fore
SplineSet
-167 -18 m 3x2c
 -167 -58 -71 -69 24 -69 c 3xac
 97 -69 172 -59 215 -40 c 1
 235 -40 l 1
 235 -103 l 1x64
 183 -121 85 -127 21 -127 c 3
 -121 -127 -230 -112 -230 -25 c 3xa4
 -230 33 -170 68 -111 76 c 1
 -111 81 l 1
 -169 90 -208 119 -208 163 c 0
 -208 242 -117 267 7 267 c 3xaa
 83 267 140 261 178 255 c 1
 178 192 l 1
 158 192 l 1x32
 124 202 70 210 -3 210 c 3
 -101 210 -145 190 -145 164 c 0x2a
 -145 132 -97 111 9 111 c 0
 57 111 107 114 139 119 c 1
 151 119 l 1
 151 64 l 1
 -125 52 -167 19 -167 -18 c 3x2c
EndSplineSet
EndChar
StartChar: l.high
Encoding: 65572 -1 62
Width: 325
Flags: W
HStem: 342 58<167.59 395.386> 372 64<116 196.436> 377 23<354 417> 634 64<116 199.718> 668 58<161.24 397.309> 668 24<354 417>
VStem: 354 63<377 692> 504 62<462.68 612.529>
LayerCount: 2
Fore
SplineSet
417 377 m 1x27
 354 377 l 1
 354 692 l 1
 417 692 l 25
 417 377 l 1x27
504 541 m 3
 504 644.21875 420 668 330 668 c 0x8b
 264 668 179 657 126 634 c 1
 116 634 l 1
 116 698 l 1x13
 181 720 262 726 330 726 c 0
 463 726 566 672.481445312 566 541 c 3
 566 408.459960938 473 342 330 342 c 0x8b
 262 342 181 348 116 372 c 1
 116 436 l 1
 126 436 l 1x43
 179 413 264 400 330 400 c 0x83
 430 400 504 436.180664062 504 541 c 3
EndSplineSet
EndChar
StartChar: l.low
Encoding: 65573 -1 63
Width: 325
Flags: W
HStem: -128 58<-157.41 70.3865> -98 64<-209 -128.564> -93 23<29 92> 174 64<-209 -125.282> 208 58<-163.76 72.3087> 208 24<29 92>
VStem: 29 63<-93 232> 179 62<-6.87825 152.059>
LayerCount: 2
Fore
SplineSet
92 -93 m 1x27
 29 -93 l 1
 29 232 l 1
 92 232 l 25
 92 -93 l 1x27
179 76 m 7
 179 184 95 208 5 208 c 0x8b
 -61 208 -146 197 -199 174 c 1
 -209 174 l 1
 -209 238 l 1x13
 -144 260 -63 266 5 266 c 0
 138 266 241 209 241 76 c 7
 241 -58 148 -128 5 -128 c 0x8b
 -63 -128 -144 -122 -209 -98 c 1
 -209 -34 l 1
 -199 -34 l 1x43
 -146 -57 -61 -70 5 -70 c 0x83
 105 -70 179 -33 179 76 c 7
EndSplineSet
EndChar
StartChar: m.high
Encoding: 65566 -1 56
Width: 325
Flags: W
HStem: 342 58<77.0769 247.205 403.303 567.232> 352 64<76 179.91 470.09 574> 511 57<87 565> 647 64<76 179.91 470.09 574> 668 58<82.7675 247.653 402.795 572.923>
VStem: 284 82<444.281 624.719>
LayerCount: 2
Fore
SplineSet
565 511 m 5x24
 87 511 l 5
 87 568 l 5
 565 568 l 29
 565 511 l 5x24
284 539 m 4
 284 625 251 668 182 668 c 4xac
 139 668 119 661 86 647 c 5
 76 647 l 5
 76 711 l 5x34
 119 723 137 726 182 726 c 4
 249 726 308 687 324 626 c 5
 328 626 l 5
 344 688 399 727 468 727 c 4
 513 727 531 725 574 717 c 5
 574 653 l 5
 564 653 l 5
 531 663 511 669 468 669 c 4
 393 669 366 616 366 530 c 4
 366 444 399 401 468 401 c 4
 511 401 531 408 564 422 c 5
 574 422 l 5
 574 358 l 5
 531 346 513 343 468 343 c 4
 401 343 342 382 326 443 c 5
 322 443 l 5
 306 381 251 342 182 342 c 4xac
 137 342 119 344 76 352 c 5
 76 416 l 5
 86 416 l 5x64
 119 406 139 400 182 400 c 4xa4
 257 400 284 453 284 539 c 4
EndSplineSet
EndChar
StartChar: m.low
Encoding: 65567 -1 57
Width: 325
Flags: W
HStem: -128 58<-247.923 -80.1234 80.6358 242.232> -118 64<-249 -145.09 145.09 249> 46 57<-238 240> 187 64<-249 -145.09 145.09 249> 208 58<-242.232 -78.3026 77.7948 247.923>
VStem: -41 82<-25.2173 164.217>
LayerCount: 2
Fore
SplineSet
240 46 m 5x24
 -238 46 l 5
 -238 103 l 5
 240 103 l 29
 240 46 l 5x24
-41 74 m 4
 -41 160 -74 208 -143 208 c 0xac
 -186 208 -206 201 -239 187 c 1
 -249 187 l 1
 -249 251 l 1x34
 -206 263 -188 266 -143 266 c 0
 -76 266 -17 227 -1 166 c 1
 3 166 l 1
 19 228 74 267 143 267 c 0
 188 267 206 265 249 257 c 1
 249 193 l 1
 239 193 l 1
 206 203 186 209 143 209 c 0
 68 209 41 151 41 65 c 4
 41 -21 74 -69 143 -69 c 0
 186 -69 206 -62 239 -48 c 1
 249 -48 l 1
 249 -112 l 1
 206 -124 188 -127 143 -127 c 0
 76 -127 17 -88 1 -27 c 1
 -3 -27 l 1
 -19 -89 -74 -128 -143 -128 c 0xac
 -188 -128 -206 -126 -249 -118 c 1
 -249 -54 l 1
 -239 -54 l 1x64
 -206 -64 -186 -70 -143 -70 c 0xa4
 -68 -70 -41 -12 -41 74 c 4
EndSplineSet
EndChar
StartChar: n_1.high
Encoding: 65568 -1 58
Width: 325
Flags: W
HStem: 343 56<238.796 410.898 470.859 545> 548 57<37 613> 669 57<402.721 463.443>
VStem: 122 64<449.889 669.257> 160 67<663.925 722> 329 62<475.681 662.999> 474 62<475.671 662.155>
LayerCount: 2
Fore
SplineSet
613 548 m 1xe6
 37 548 l 1
 37 605 l 1
 613 605 l 25
 613 548 l 1xe6
474 581 m 3
 474 649 460 669 431 669 c 3
 406 669 391 650 391 559 c 3
 391 473 450 404 546 403 c 1
 545 403 l 1
 545 347 l 1
 534 347 l 17
 420 355 329 427 329 559 c 3
 329 660 366 726 433 726 c 3
 509 726 536 666 536 581 c 3
 536 446 457 343 323 343 c 0
 200 343 122 415 122 535 c 0xf6
 122 605 132 657 160 722 c 1
 227 722 l 1
 227 712 l 1xee
 198 659 186 603 186 535 c 0xf6
 186 445 234 399 323 399 c 0
 427 399 474 471 474 581 c 3
EndSplineSet
Substitution2: "n-right-1" n.high_hidden
Substitution2: "n-left-1" n_n.high
EndChar
StartChar: n_1.low
Encoding: 65569 -1 59
Width: 325
Flags: W
HStem: -127 56<-86.2041 85.8978 149.27 220> 88 57<-288 288> 209 57<78.0482 138.125>
VStem: -203 64<-17.8806 207.972> -165 67<202.302 262> 4 62<10.3798 201.336> 149 62<7.49381 201.815>
LayerCount: 2
Fore
SplineSet
288 88 m 1xe6
 -288 88 l 1
 -288 145 l 1
 288 145 l 25
 288 88 l 1xe6
149 117 m 3
 149 185 135 209 106 209 c 3
 81 209 66 186 66 95 c 3
 66 9 125 -66 221 -67 c 1
 220 -67 l 1
 220 -123 l 1
 209 -123 l 17
 95 -115 4 -37 4 95 c 3
 4 196 41 266 108 266 c 3
 184 266 211 202 211 117 c 3
 211 -18 132 -127 -2 -127 c 0
 -125 -127 -203 -52 -203 68 c 0xf6
 -203 138 -193 197 -165 262 c 1
 -98 262 l 1
 -98 252 l 1xee
 -127 199 -139 136 -139 68 c 0xf6
 -139 -22 -91 -71 -2 -71 c 0
 102 -71 149 7 149 117 c 3
EndSplineSet
Substitution2: "n-right-1" n.low_hidden
Substitution2: "n-left2-1" n_n.low2
Substitution2: "n-left-1" n_n.low
EndChar
StartChar: n_2
Encoding: 65555 -1 41
Width: 720
Flags: W
HStem: 128 56<239.484 337.099> 266 56<168.995 251.14> 315 55<632.304 688> 508 56<180.599 393.312>
VStem: 86 62<-123 32.7971 594.245 721.472> 97 63<642.4 722> 99 64<329.281 429> 365 64<-123 98.284> 515 64<-123 106.469> 527.639 62.7227<-4.10138 272.694 495.102 722>
LayerCount: 2
Back
SplineSet
186 641 m 4
 186 591.440429688 225.863034478 572 281 572 c 4
 370.786521841 572 461.155560943 615.20741459 500 667 c 5
 547 629 l 5
 491.862549147 562.375580219 394.853971172 516 274 516 c 4
 188.778320312 516 124 548.576790737 124 634 c 4
 124 672 129.777777778 702 137 722 c 5
 200 722 l 5
 200 712 l 5
 192 687 186 665 186 641 c 4
EndSplineSet
Fore
SplineSet
283 184 m 0x91
 389 184 429 132 429 24 c 2
 429 -123 l 1
 365 -123 l 1
 365 24 l 2
 365 88 336 128 283 128 c 0
 243 128 206 102 184 79 c 1
 141 121 l 1
 165 146 199 178 238 188 c 1
 247 178 l 1
 255 181 269 184 283 184 c 0x91
166 419 m 1
 164 402 163 390 163 372 c 0
 163 346 172 322 219 322 c 0
 291 322 346 371 354 427 c 1
 399 405 l 1
 363 333 317 274 246 265 c 1
 242 271 l 1
 237 268 225 266 209 266 c 0
 129 266 99 310 99 372 c 0xd3
 99 394 102 411 104 429 c 1
 166 429 l 1
 166 419 l 1
148 641 m 0x99
 148 586 206 564 278 564 c 0
 368 564 513 617 533 702 c 1
 581 675 l 1
 538 560 392 508 271 508 c 0
 166 508 86 529 86 634 c 0x99
 86 672 91 703 97 722 c 1
 160 722 l 1
 160 712 l 1x95
 154 693 148 671 148 641 c 0x99
351 429 m 1
 415 429 l 1
 415 352 365 304 317 258 c 0
 274 217 229 172 196 103 c 0
 169 48 151 -24 151 -123 c 1
 87 -123 l 1
 87 -17 108 63 138 126 c 0
 176 205 228 256 271 297 c 0
 321 345 351 383 351 429 c 1
529 722 m 1
 593 722 l 1
 583 616 581.384765625 531.149414062 585.208984375 471.58984375 c 0
 590.452148438 393.836914062 635 374 688 370 c 1
 688 315 l 1
 623.451171875 304.635742188 596.934570312 265.2421875 590.361328125 217.72265625 c 0xb140
 579.315429688 137.454101562 579 17 579 -123 c 1
 515 -123 l 1xb180
 515 18 515.384765625 133.869140625 527.638671875 223.27734375 c 0xb140
 533.450195312 268.87109375 552.118164062 320.201171875 589 335 c 1
 589 339 l 1
 552 346 533.706054688 387.758789062 527.791015625 423.41015625 c 0
 514.876953125 493.803710938 519 590 529 722 c 1
EndSplineSet
LCarets2: 1 360
Ligature2: "required-ligature-1" n uni2082
EndChar
StartChar: n_n.high
Encoding: 65590 -1 80
Width: 325
Flags: W
HStem: 343 56<250.039 549.469 700.67 1027.51 1120.86 1195> 548 57<37 1263> 669 57<591.069 653.125 1053.05 1113.12>
VStem: 122 64<452.798 667.972> 160 67<662.302 722> 519 62<488.812 662.061> 664 62<490.177 661.815> 979 62<472.548 661.336> 1124 62<487.897 661.815>
LayerCount: 2
Fore
SplineSet
519 565 m 0xf780
 519 660 556 726 623 726 c 3
 699 726 726 662 726 577 c 3
 726 432 619.459960938 343 393 343 c 0
 185.129882812 343 122 408 122 528 c 0xf780
 122 598 132 657 160 722 c 1
 227 722 l 1
 227 712 l 1xef80
 198 659 186 596 186 528 c 0
 186 438 242.58984375 399 393 399 c 0
 568.759765625 399 664 447 664 577 c 3
 664 645 650 669 621 669 c 3
 596 669 581 649 581 565 c 0
 581 455 672.58984375 399 883 399 c 4
 1058.75976562 399 1124 467 1124 577 c 3
 1124 645 1110 669 1081 669 c 3
 1056 669 1041 646 1041 555 c 3
 1041 469 1100 404 1196 403 c 1
 1195 403 l 1
 1195 347 l 1
 1184 347 l 17
 1070 355 979 423 979 555 c 3
 979 656 1016 726 1083 726 c 3
 1159 726 1186 662 1186 577 c 3
 1186 442 1109.45996094 343 883 343 c 0
 625.129882812 343 519 415 519 565 c 0xf780
1263 548 m 1
 37 548 l 1
 37 605 l 1
 1263 605 l 25
 1263 548 l 1
EndSplineSet
EndChar
StartChar: n_n.low2
Encoding: 65592 -1 82
Width: 325
Flags: W
HStem: -127 56<-64.7244 208.146 388.269 688.78 799.27 870> 88 57<-288 938> 209 57<266.069 328.125 728.048 788.125>
VStem: -203 64<-9.26318 207.972> -165 67<202.302 262> 194 62<26.5336 202.449> 339 62<37.8138 201.815> 654 62<10.3798 201.336> 799 62<23.2878 201.815>
LayerCount: 2
Fore
SplineSet
194 105 m 4xf780
 194 201 231 266 298 266 c 3
 374 266 401 202 401 117 c 3
 401 -18 294 -127 68 -127 c 0
 -140 -127 -203 -52 -203 68 c 0xf780
 -203 138 -193 197 -165 262 c 1
 -98 262 l 1
 -98 252 l 1xef80
 -127 199 -139 136 -139 68 c 0
 -139 -22 -82 -71 68 -71 c 0
 244 -71 339 7 339 117 c 3
 339 185 325 209 296 209 c 3
 271 209 256 191 256 105 c 4
 256 -5 348 -71 558 -71 c 4
 734 -71 799 7 799 117 c 3
 799 185 785 209 756 209 c 3
 731 209 716 186 716 95 c 3
 716 9 775 -66 871 -67 c 1
 870 -67 l 1
 870 -123 l 1
 859 -123 l 17
 745 -115 654 -37 654 95 c 3
 654 196 691 266 758 266 c 3
 834 266 861 202 861 117 c 3
 861 -18 784 -127 558 -127 c 4
 290 -127 194 -35 194 105 c 4xf780
938 88 m 1
 -288 88 l 1
 -288 145 l 1
 938 145 l 25
 938 88 l 1
EndSplineSet
EndChar
StartChar: p.high
Encoding: 65564 -1 54
Width: 325
VWidth: 1024
Flags: W
HStem: 342 57<227.443 427.583> 669 57<230.929 419.357>
VStem: 92 63<459.568 600.154> 495 63<461.703 602.204>
LayerCount: 2
Fore
SplineSet
331 342 m 3
 201 342 92 403 92 528 c 3
 92 646 194 726 322 726 c 3
 454 726 558 656 558 534 c 3
 558 413 460 342 331 342 c 3
320 669 m 3
 226 669 155 611 155 529 c 3
 155 440 235 399 333 399 c 3
 428 399 495 448 495 533 c 3
 495 619 419 669 320 669 c 3
EndSplineSet
EndChar
StartChar: p.low
Encoding: 65565 -1 55
Width: 325
VWidth: 1024
Flags: W
HStem: -127 57<-91.4431 96.8269> 210 57<-94.071 96.0822>
VStem: -233 63<-0.296114 141.967> 170 63<-0.728981 144.034>
LayerCount: 2
Fore
SplineSet
6 -127 m 3
 -124 -127 -233 -55 -233 70 c 3
 -233 188 -131 267 -3 267 c 3
 129 267 233 198 233 76 c 3
 233 -45 135 -127 6 -127 c 3
-5 210 m 3
 -99 210 -170 153 -170 71 c 3
 -170 -18 -90 -70 8 -70 c 3
 103 -70 170 -10 170 75 c 3
 170 161 94 210 -5 210 c 3
EndSplineSet
EndChar
StartChar: r.high
Encoding: 65570 -1 60
Width: 325
VWidth: 0
Flags: W
HStem: 312 54<126 218.464> 446 54<402.535 513.56> 454 70<72 126.934> 569 59<383.496 520.14> 665 53<480.448 564> 672 54<409.788 563.221>
VStem: 242 62<388.353 469.548> 318 62<522.804 642.51> 521 66<510.116 565.297>
LayerCount: 2
Fore
SplineSet
462 500 m 0xd780
 490 500 521 515 521 542 c 0
 521 559 503 569 470 569 c 0
 390 569 295 553 228 525 c 1
 228 522 l 1
 273 517 304 482 304 429 c 0
 304 349 233 312 126 312 c 1
 126 366 l 1
 195 366 242 387 242 429 c 0
 242 462 217 480 179 480 c 0
 143 480 113 471 82 454 c 1
 72 454 l 1
 72 524 l 1xb380
 196 575 370 628 470 628 c 0
 545 628 587 600 587 543 c 0
 587 480 531 446 462 446 c 0
 383 446 318 493 318 580 c 0
 318 663 375 726 479 726 c 0xd780
 510 726 534 723 564 718 c 1
 564 665 l 1
 554 665 l 1x9b80
 526 670 507 672 479 672 c 0
 413 672 380 636 380 580 c 0
 380 525 419 500 462 500 c 0xd780
EndSplineSet
EndChar
StartChar: r.low
Encoding: 65571 -1 61
Width: 325
VWidth: 0
Flags: W
HStem: 210 57<-3.99203 90.6163>
VStem: -46 70<-127 -91.1837> 106 66<59.7251 194.939>
LayerCount: 2
Fore
SplineSet
-94 159 m 1
 -112 199 l 1
 -55 242 4 267 50 267 c 0
 126 267 172 221 172 139 c 0
 172 11 66 -37 24 -127 c 1
 -46 -127 l 1
 -46 -117 l 1
 15 0 106 34 106 135 c 0
 106 190 79 210 40 210 c 0
 2 210 -30 203 -94 159 c 1
47 312 m 1
 47 302 l 1
 -182 51 l 1
 -192 51 l 1
 -192 129 l 1
 -21 312 l 1
 47 312 l 1
EndSplineSet
EndChar
StartChar: s_2
Encoding: 65552 -1 38
Width: 540
VWidth: 1024
Flags: W
HStem: -1 57<355.281 396.422> 279 57<229.74 359.722>
VStem: 96 63<-123 722> 378 63<143.129 260.632> 406 63<-123 -6.53882>
LayerCount: 2
Fore
SplineSet
406 -123 m 17xe8
 406 -39 403 -1 363 -1 c 3
 340 -1 319 -10 276 -70 c 1
 244 -33 l 1
 297 36 327 56 374 56 c 3
 448 56 469 0 469 -112 c 10
 469 -123 l 1
 406 -123 l 17xe8
184 -113 m 1
 298 72 378 138 378 207 c 3
 378 254 346 279 300 279 c 3
 253.974609375 279 192.346666667 248 146 169 c 1
 110 208 l 1
 161.75862069 287 232.3671875 336 307 336 c 3
 397 336 441 286 441 214 c 3xf0
 441 118 361 64 250 -123 c 1
 184 -123 l 1
 184 -113 l 1
159 -123 m 1
 96 -123 l 1
 96 722 l 1
 159 722 l 1
 159 -123 l 1
EndSplineSet
Substitution2: "low-1" s_2.low
LCarets2: 1 270
Ligature2: "required-ligature-1" s uni2082
EndChar
StartChar: s_2.low
Encoding: 65576 -1 66
Width: 325
VWidth: 1024
Flags: W
HStem: -1 57<86.3512 142.668> 209 57<-49.2081 94.3014>
VStem: -195 63<-123 263> 107 63<107.779 194.58> 165 63<-123 -23.4062>
LayerCount: 2
Fore
SplineSet
165 -123 m 21xe8
 165 -39 142 -1 102 -1 c 7
 75 -1 40 -10 -10 -70 c 5
 -42 -33 l 5
 17 36 61 56 113 56 c 7
 187 56 228 0 228 -112 c 14
 228 -123 l 5
 165 -123 l 21xe8
-107 -113 m 5
 7 72 107 91 107 154 c 7
 107 189 79 209 29 209 c 7
 -27 209 -94 173 -147 98 c 5
 -179 139 l 5
 -121 213 -39 266 36 266 c 7
 124 266 170 219 170 159 c 7xf0
 170 68 70 64 -41 -123 c 5
 -107 -123 l 5
 -107 -113 l 5
-132 -123 m 5
 -195 -123 l 5
 -195 263 l 5
 -132 263 l 5
 -132 -123 l 5
EndSplineSet
EndChar
StartChar: s_3
Encoding: 65553 -1 39
Width: 590
Flags: W
HStem: 275 57<278 424> 380 58<242.344 319.506>
VStem: 173 64<443.242 534.25> 215 63<-59 275> 325 64<443.785 536.232>
LayerCount: 2
Fore
SplineSet
279 380 m 0xe8
 215 380 173 417 173 482 c 0
 173 575 299 667 337 703 c 1
 416 703 l 1
 416 693 l 1
 364 647 237 544 237 482 c 0
 237 454 254 438 282 438 c 0
 307 438 325 455 325 483 c 0
 325 548 199 648 147 692 c 1
 147 702 l 1
 229 702 l 1
 269 668 389 578 389 483 c 0
 389 425 340 380 279 380 c 0xe8
37 -123 m 1
 37 -63 l 1
 220 43 379 134 424 275 c 1
 278 275 l 25
 278 -59 l 17
 342 -24 392 23 416 51 c 1
 466 51 l 1
 518 -20 l 9
 518 -103 l 1
 508 -103 l 25
 434 -7 l 1
 406 -39 344 -90 266 -123 c 9
 215 -123 l 25
 215 332 l 25xd8
 494 332 l 25
 494 283 l 17
 438 119 262 -11 47 -123 c 1
 37 -123 l 1
EndSplineSet
Substitution2: "low-1" s_3.low
LCarets2: 1 295
Ligature2: "required-ligature-1" s uni2083
EndChar
StartChar: s_3.low
Encoding: 65577 -1 67
Width: 325
Flags: W
HStem: 202 57<-27 92>
VStem: -90 63<-59 202>
LayerCount: 2
Back
SplineSet
37 -123 m 5
 37 -63 l 5
 220 43 379 134 424 275 c 5
 278 275 l 29
 278 -59 l 21
 342 -24 392 23 416 51 c 5
 466 51 l 5
 518 -20 l 13
 518 -103 l 5
 508 -103 l 29
 434 -7 l 5
 406 -39 344 -90 266 -123 c 13
 215 -123 l 29
 215 332 l 29xd8
 494 332 l 29
 494 283 l 21
 438 119 262 -11 47 -123 c 5
 37 -123 l 5
EndSplineSet
Fore
SplineSet
-268 -123 m 5
 -268 -63 l 5
 -85 43 29 110 92 202 c 5
 -27 202 l 29
 -27 -59 l 21
 37 -24 87 23 111 51 c 5
 161 51 l 5
 213 -20 l 13
 213 -103 l 5
 203 -103 l 29
 129 -7 l 5
 101 -39 39 -90 -39 -123 c 13
 -90 -123 l 29
 -90 259 l 29
 168 259 l 29
 168 210 l 21
 79 80 -43 -11 -258 -123 c 5
 -268 -123 l 5
EndSplineSet
EndChar
StartChar: s_3_t_2
Encoding: 65604 -1 94
Width: 1210
Flags: W
HStem: -127 56<588.04 756.534> 279 57<278 424 644 695.717 1033.26 1087.06> 380 58<242.344 319.506>
VStem: 173 64<443.242 534.25> 215 63<-59 275> 325 64<443.785 536.232> 828 60<-2.43677 166.33> 968 64<204.887 277.874> 1090 63<199.574 277.772>
LayerCount: 2
Fore
SplineSet
1006 190 m 7xe780
 1068 190 1090 202 1090 240 c 7
 1090 265 1079 279 1060 279 c 7
 1044 279 1032 265 1032 248 c 7
 1032 229 1038 211 1069 195 c 5
 1008 186 l 5
 981 196 968 220 968 253 c 7
 968 304 1011 336 1060 336 c 7
 1114 336 1153 302 1153 242 c 7
 1153 170 1103 133 1020 133 c 7
 858 133 791 229 644 279 c 29
 644 336 l 5
 654 336 l 29
 783 284 905 190 1006 190 c 7xe780
671 -71 m 4
 761 -71 828 -15 828 81 c 4
 828 171 792 210 732 244 c 5
 761 281 l 5
 865 203 888 166 888 81 c 4
 888 -38 804 -127 671 -127 c 4
 568 -127 504 -72 434 -7 c 5
 406 -39 344 -90 266 -123 c 13
 215 -123 l 29
 215 332 l 29
 494 332 l 29
 494 283 l 21
 438 119 262 -11 47 -123 c 5
 37 -123 l 5
 37 -63 l 5
 220 43 379 134 424 275 c 5
 278 275 l 29
 278 -59 l 21xef80
 342 -24 392 23 416 51 c 5
 466 51 l 5
 521 -15 596 -71 671 -71 c 4
279 380 m 0
 215 380 173 417 173 482 c 0
 173 575 299 667 337 703 c 1
 416 703 l 1
 416 693 l 1
 364 647 237 544 237 482 c 0xf780
 237 454 254 438 282 438 c 0
 307 438 325 455 325 483 c 0
 325 548 199 648 147 692 c 1
 147 702 l 1
 229 702 l 1
 269 668 389 578 389 483 c 0
 389 425 340 380 279 380 c 0
EndSplineSet
LCarets2: 1 0
Ligature2: "reverse-too-1" s_3 t_2
EndChar
StartChar: s_3_t_2.low
Encoding: 65605 -1 95
Width: 905
Flags: W
HStem: -127 56<286.654 451.534> 202 57<-27 92> 279 57<339 390.717 728.264 782.06>
VStem: -90 63<-59 202> 523 60<-2.43677 166.33> 663 64<204.887 277.874> 785 63<199.574 277.772>
LayerCount: 2
Fore
SplineSet
701 190 m 3
 763 190 785 202 785 240 c 3
 785 265 774 279 755 279 c 3
 739 279 727 265 727 248 c 3
 727 229 733 211 764 195 c 1
 703 186 l 1
 676 196 663 220 663 253 c 3
 663 304 706 336 755 336 c 3
 809 336 848 302 848 242 c 3
 848 170 798 133 715 133 c 3
 553 133 486 229 339 279 c 25
 339 336 l 1
 349 336 l 25
 478 284 600 190 701 190 c 3
129 -7 m 1
 101 -39 39 -90 -39 -123 c 9
 -90 -123 l 25
 -90 259 l 25
 168 259 l 25
 168 210 l 17
 79 80 -43 -11 -258 -123 c 1
 -268 -123 l 1
 -268 -63 l 1
 -85 43 29 110 92 202 c 1
 -27 202 l 25
 -27 -59 l 17
 37 -24 87 23 111 51 c 1
 161 51 l 1
 198 16 278 -71 366 -71 c 0
 456 -71 523 -15 523 81 c 0
 523 171 487 210 427 244 c 1
 456 281 l 1
 560 203 583 166 583 81 c 0
 583 -38 499 -127 366 -127 c 0
 262 -127 170 -43 129 -7 c 1
EndSplineSet
LCarets2: 1 0
Ligature2: "reverse-too-1" s_3.low t_2
EndChar
StartChar: t_2
Encoding: 65557 -1 43
Width: 650
Flags: W
HStem: 6 52.5<32 105.975> 19 57<463.321 517.14> 269.5 57<453.948 532>
VStem: 398 64<-55.1135 17.897> 520 63<-60.4276 17.7027>
LayerCount: 2
Back
SplineSet
-150 292 m 17x7c
 -104 340 -38.0419921875 444.333984375 38.78515625 542 c 0
 113.40497324 636.859959797 195 727.92578125 287 762 c 1
 297 762 l 1
 297 699 l 1
 191 654.244140625 79 502 10 408 c 5
 13 406 l 5
 32 413 56.958984375 413 86 413 c 7x7c
 196.453125 413 306.975585938 400 393 400 c 7
 465.25 400 490 412 490 450 c 7
 490 475.268554688 472.4765625 489 457 489 c 7
 441.478515625 489 432 471.985351562 432 458 c 7
 432 439 438 421 469 405 c 5
 408 396 l 5
 381 406 368 430 368 463 c 7
 368 524.134765625 426.197265625 546 455 546 c 7
 499.243164062 546 553 519.610351562 553 452 c 7
 553 374.993164062 500.08203125 343 407 343 c 7xbc
 296.451171875 343 180.307617188 356 76 356 c 7
 35.9599609375 356 -2.3935546875 354.668945312 -32 337 c 5
 -60.732421875 301.981445312 -93 263 -120 237 c 1
 -150 292 l 17x7c
EndSplineSet
Fore
SplineSet
450 -127 m 3x78
 287.950195312 -127 190.307617188 6 86 6 c 0
 79.283203125 6 74.5107421875 5.990234375 71.1240234375 5.990234375 c 0
 58.2451171875 3.107421875 45.216796875 1.5 32 1.5 c 1
 32 58.5 l 1xb8
 54.4609375 58.5 84.431640625 68.349609375 118.577148438 87.0205078125 c 0
 212.04296875 138.127929688 305.58984375 235.271484375 402.356445312 287.450195312 c 0
 444.165039062 309.995117188 487.178710938 326.5 532 326.5 c 1
 532 269.5 l 1
 505.212890625 269.5 471.6875 258.48046875 434.541992188 238.450195312 c 0
 345.080078125 190.209960938 252.393554688 95.521484375 160.7109375 46.91015625 c 1
 160.7109375 42.91015625 l 1
 235.375976562 12.2724609375 335.142578125 -70 436 -70 c 3
 498.25 -70 520 -58 520 -20 c 3
 520 5.2685546875 509.4765625 19 490 19 c 3
 474.478515625 19 462 4.9853515625 462 -12 c 3
 462 -31 468 -49 499 -65 c 1
 438 -74 l 1
 411 -64 398 -40 398 -7 c 3
 398 44.134765625 441.197265625 76 490 76 c 3
 544.243164062 76 583 41.6103515625 583 -18 c 3
 583 -90.0068359375 533.08203125 -127 450 -127 c 3x78
EndSplineSet
LCarets2: 1 0
Substitution2: "low-1" t_2.low
Substitution2: "high-1" t_2.high
Ligature2: "required-ligature-1" t uni2082
EndChar
StartChar: t_2.high
Encoding: 65574 -1 64
Width: 325
Flags: W
HStem: 476 52.5<42 115.975> 489 57<473.321 527.14> 669.5 57<425.539 542>
VStem: 408 64<414.887 487.897> 530 63<409.572 487.703>
LayerCount: 2
Fore
SplineSet
460 343 m 3x78
 297.950195312 343 200.307617188 476 96 476 c 0
 89.283203125 476 84.5107421875 475.990234375 81.1240234375 475.990234375 c 0
 68.2451171875 473.107421875 55.216796875 471.5 42 471.5 c 1
 42 528.5 l 1xb8
 64.4609375 528.5 94.431640625 538.349609375 128.577148438 557.020507812 c 0
 222.04296875 608.127929688 302.498046875 669.2890625 406.85546875 703.873046875 c 0
 451.943359375 718.815429688 497.178710938 726.5 542 726.5 c 1
 542 669.5 l 1
 515.212890625 669.5 470.102539062 663.303710938 430.04296875 650.02734375 c 0
 333.563476562 618.0546875 262.393554688 565.521484375 170.7109375 516.91015625 c 1
 170.7109375 512.91015625 l 1
 245.375976562 482.272460938 345.142578125 400 446 400 c 3
 508.25 400 530 412 530 450 c 3
 530 475.268554688 519.4765625 489 500 489 c 3
 484.478515625 489 472 474.985351562 472 458 c 3
 472 439 478 421 509 405 c 1
 448 396 l 1
 421 406 408 430 408 463 c 3
 408 514.134765625 451.197265625 546 500 546 c 3
 554.243164062 546 593 511.610351562 593 452 c 3
 593 379.993164062 543.08203125 343 460 343 c 3x78
EndSplineSet
Substitution2: "faato-1" faato
EndChar
StartChar: t_2.low
Encoding: 65575 -1 65
Width: 325
Flags: W
HStem: 64 57<148.264 202.06> 81 52<-283 -202.728>
VStem: 83 64<122.7 193.989> 205 63<122.228 200.365>
LayerCount: 2
Fore
SplineSet
135 266 m 3x70
 218 266 268 230 268 158 c 3
 268 98 229 64 175 64 c 3
 126 64 83 95 83 146 c 3
 83 179 96 204 123 214 c 1
 184 204 l 1
 153 188 147 171 147 152 c 3
 147 135 159 121 175 121 c 3xb0
 194 121 205 135 205 160 c 3
 205 198 183 210 121 210 c 3
 20 210 -79 128 -154 97 c 1
 -154 93 l 1
 -41 41 90 -45 183 -117 c 1
 183 -127 l 1
 101 -127 l 5
 16 -62 -84 7 -191 54 c 0
 -227 70 -261 81 -283 81 c 1
 -283 138 l 1
 -270 138 -257 137 -244 134 c 0
 -241 134 -236 133 -229 133 c 0
 -125 133 -27 266 135 266 c 3x70
EndSplineSet
EndChar
StartChar: t_s
Encoding: 65536 -1 4
Width: 730
VWidth: 0
Flags: W
HStem: 215 55<479 520.37> 394 60<66 220.388> 644 54<323 495>
VStem: 260 63<-123 428 510 641> 570 63<-123 48.685> 577 63<-121.863 154.266>
LayerCount: 2
Back
SplineSet
38 -132 m 1
 648 470 l 1049
575 430 m 1
 575 360 l 1
 464 283 l 1
 465 280 l 1
 570 280 630 194 630 102 c 0
 630 -11 553 -83 500 -103 c 1
 490 -103 l 1
 490 -39 l 1
 544 -8 564 41 564 102 c 0
 564 177 503 223 441 223 c 0
 396 223 356 206 315 176 c 2
 66 0 l 1
 56 0 l 1
 56 68 l 1
 565 430 l 1
 575 430 l 1
EndSplineSet
Fore
SplineSet
323 510 m 1xf0
 423 554.620117188 466.444335938 595 495 644 c 1
 323 641 l 1
 323 510 l 1xf0
323 446 m 1
 323 -123 l 1
 301 -123 282 -123 260 -123 c 1
 260 428 l 1
 190 403 116 394 66 394 c 1
 66 414 66 434 66 454 c 1
 105 454 185 459 260 489 c 1
 260 553 260 634 260 698 c 1
 569 698 l 1
 569 642 l 1
 518.813476562 564 451 503.165039062 323 446 c 1
605 478 m 1
 605 400 l 1
 478 273 l 1
 479 270 l 1
 584 270 640 186 640 60 c 3xf4
 640 -23 637 -78 633 -123 c 1
 570 -123 l 1
 570 -113 l 1xf8
 576 -72 577 -19 577 52 c 3xf4
 577 172.00390625 517 215 455 215 c 0
 410 215 362.028320312 160.172851562 326 124 c 2
 76 -127 l 1
 66 -127 l 1
 66 -48 l 1
 595 478 l 1
 605 478 l 1
EndSplineSet
LCarets2: 1 365
Ligature2: "required-ligature-1" t s
EndChar
StartChar: too
Encoding: 65598 -1 88
Width: 680
Flags: W
HStem: -107 21G<406.976 531.541> 39 57<503.321 557.14> 66 52.5<42 115.79> 273 57<313 446> 283.5 57<449.107 522> 444 52.5<62 134.963> 649.5 57<426.563 522>
VStem: 438 64<-35.1135 37.897> 560 63<-40.4276 37.7027>
LayerCount: 2
Fore
SplineSet
416 414 m 1x8780
 416 424 l 1
 485 424 l 1
 601 230 l 1
 601 220 l 1
 541 220 l 1
 416 414 l 1x8780
490 -107 m 3
 323.952148438 -107 200.307617188 66 96 66 c 0
 89.283203125 66 84.5107421875 65.990234375 81.1240234375 65.990234375 c 0
 68.2451171875 63.107421875 55.216796875 61.5 42 61.5 c 1
 42 118.5 l 1xa780
 64.4609375 118.5 94.431640625 128.349609375 128.577148438 147.020507812 c 0
 222.04296875 198.127929688 292.498046875 283.288085938 396.85546875 317.873046875 c 0
 441.943359375 332.815429688 477.178710938 340.5 522 340.5 c 1
 522 283.5 l 1
 495.212890625 283.5 460.102539062 277.303710938 420.04296875 264.02734375 c 0
 323.563476562 232.0546875 262.393554688 155.521484375 170.7109375 106.91015625 c 1
 170.7109375 102.91015625 l 1
 256 80 375.142578125 -50 476 -50 c 3
 538.25 -50 560 -38 560 0 c 3
 560 25.2685546875 549.4765625 39 530 39 c 3
 514.478515625 39 502 24.9853515625 502 8 c 3
 502 -11 508 -29 539 -45 c 1
 478 -54 l 1
 451 -44 438 -20 438 13 c 3
 438 64.134765625 481.197265625 96 530 96 c 3xcf80
 584.243164062 96 623 61.6103515625 623 2 c 3
 623 -70.0068359375 573.08203125 -107 490 -107 c 3
450 273 m 1x9780
 270 273 220.307617188 444 116 444 c 0
 109.283203125 444 104.510742188 443.990234375 101.124023438 443.990234375 c 0
 88.2451171875 441.107421875 75.216796875 439.5 62 439.5 c 1
 62 496.5 l 1
 84.4609375 496.5 114.431640625 506.349609375 148.577148438 525.020507812 c 0
 242.04296875 576.127929688 293.607421875 634.212890625 394.552734375 677.759765625 c 0
 438.166992188 696.575195312 477.178710938 706.5 522 706.5 c 1
 522 649.5 l 1
 495.212890625 649.5 461.095703125 642.857421875 422.345703125 626.140625 c 0
 329.01953125 585.880859375 282.393554688 533.521484375 190.7109375 484.91015625 c 1
 190.7109375 480.91015625 l 1
 289 443 313 332 446 330 c 1
 450 273 l 1x9780
EndSplineSet
LCarets2: 1 0
Ligature2: "double-too-1" t_2.high t_2.low
EndChar
StartChar: v_2
Encoding: 65559 -1 46
Width: 510
VWidth: 1024
Flags: W
HStem: 203 39<291 328.162> 658 60<344.176 421> 665.103 60.7402<232.208 420.293>
VStem: 60 63<350.36 555.638> 291 63<-123 242>
LayerCount: 2
Fore
SplineSet
421 718 m 1xd8
 421 658 l 1
 411 658 l 1xd8
 386.670898438 662.526367188 363.26171875 665.102539062 341 665.102539062 c 3
 205.875976562 665.102539062 123 592.282226562 123 449 c 7
 123 300.423828125 224.497070312 261 304 261 c 3
 322 261 343 261 351 262 c 1
 334 175.965820312 l 1
 304.854492188 172.520507812 328.162109375 203 301 203 c 3
 181.329101562 203 60 270.86328125 60 447 c 7
 60 627.169921875 173.65625 725.842773438 343 725.842773438 c 3xb8
 368.08203125 725.842773438 394.166992188 723.03125 421 718 c 1xd8
336 258 m 1
 474 442 l 1
 484 442 l 1
 484 350 l 1
 332 154 l 1
 336 258 l 1
354 -123 m 1
 291 -123 l 1
 291 242 l 1
 354 242 l 1
 354 -123 l 1
EndSplineSet
LCarets2: 1 0
Ligature2: "required-ligature-1" v uni2082
EndChar
StartChar: v_3
Encoding: 65560 -1 47
Width: 570
VWidth: 1024
Flags: W
HStem: 41 57<322 555> 279 57<228.274 379.134>
VStem: 96 63<-123 332> 413 63<-123 241.676>
LayerCount: 2
Fore
SplineSet
555 41 m 5
 322 41 l 5
 322 98 l 5
 555 98 l 29
 555 41 l 5
413 -123 m 25
 413 128 l 18
 413 242 382 279 314 279 c 3
 257 279 201.797851562 256.282226562 133.280273438 175.913085938 c 1
 100.719726562 213.086914062 l 1
 171 295 240 336 327 336 c 3
 441.868882642 336 476 277.508738063 476 128 c 10
 476 -123 l 25
 413 -123 l 25
159 -123 m 1
 96 -123 l 1
 96 332 l 1
 159 332 l 1
 159 -123 l 1
EndSplineSet
Substitution2: "low-1" v_3.low
Substitution2: "high-1" v_3.high
LCarets2: 1 0
Ligature2: "required-ligature-1" v uni2083
EndChar
StartChar: v_3.high
Encoding: 65586 -1 77
Width: 325
VWidth: 1024
Flags: W
HStem: 452 57<352 585> 670 57<253.969 409.134>
VStem: 116 63<347 723> 443 63<347 632.676>
LayerCount: 2
Fore
SplineSet
585 452 m 1
 352 452 l 1
 352 509 l 1
 585 509 l 25
 585 452 l 1
443 347 m 25
 443 519 l 18
 443 633 412 670 344 670 c 3
 287 670 221.797851562 647.282226562 153.280273438 566.913085938 c 5
 120.719726562 604.086914062 l 5
 191 686 270 727 357 727 c 3
 471.869140625 727 506 668.508789062 506 519 c 10
 506 347 l 25
 443 347 l 25
179 347 m 5
 116 347 l 5
 116 723 l 5
 179 723 l 5
 179 347 l 5
EndSplineSet
EndChar
StartChar: v_3.low
Encoding: 65587 -1 76
Width: 325
VWidth: 1024
Flags: W
HStem: -8 57<27 260> 210 57<-71.0016 84.1575>
VStem: -209 63<-123 263> 118 63<-123 172.676>
LayerCount: 2
Fore
SplineSet
260 -8 m 1
 27 -8 l 1
 27 49 l 1
 260 49 l 25
 260 -8 l 1
118 -123 m 25
 118 59 l 18
 118 173 87 210 19 210 c 3
 -38 210 -103 187 -172 107 c 1
 -204 144 l 1
 -134 226 -55 267 32 267 c 3
 147 267 181 209 181 59 c 10
 181 -123 l 25
 118 -123 l 25
-146 -123 m 1
 -209 -123 l 1
 -209 263 l 1
 -146 263 l 1
 -146 -123 l 1
EndSplineSet
EndChar
StartChar: z_2
Encoding: 65562 -1 50
Width: 860
VWidth: 1024
Flags: W
HStem: -1 57<683.281 724.422> 279 57<557.74 687.722> 669 57<228.274 381.339>
VStem: 96 63<-123 722> 423 63<-123 623.279> 706 63<143.129 260.632> 734 63<-123 -6.53882>
LayerCount: 2
Fore
SplineSet
734 -123 m 17xfa
 734 -39 731 -1 691 -1 c 3
 668 -1 647 -10 604 -70 c 1
 572 -33 l 1
 625 36 655 56 702 56 c 3
 776 56 797 0 797 -112 c 10
 797 -123 l 1
 734 -123 l 17xfa
512 -113 m 1
 626 72 706 138 706 207 c 3
 706 254 674 279 628 279 c 3
 581.974609375 279 520.346679688 248 474 169 c 1
 438 208 l 1
 489.758789062 287 560.3671875 336 635 336 c 3
 725 336 769 286 769 214 c 3xfc
 769 118 689 64 578 -123 c 1
 512 -123 l 1
 512 -113 l 1
423 -123 m 25
 423 518 l 18
 423 632 382 669 314 669 c 3
 257 669 201.797851562 646.282226562 133.280273438 565.913085938 c 1
 100.719726562 603.086914062 l 1
 171 685 240 726 327 726 c 3
 441.907514101 726 486 667.523599619 486 518 c 10
 486 -123 l 25
 423 -123 l 25
159 -123 m 1
 96 -123 l 1
 96 722 l 1
 159 722 l 1
 159 -123 l 1
EndSplineSet
Ligature2: "required-ligature-1" z uni2082
EndChar
StartChar: z_3
Encoding: 65563 -1 51
Width: 670
VWidth: 1024
Flags: W
HStem: 275 57<378 524> 669 57<228.274 381.339>
VStem: 96 63<-123 722> 315 63<-59 275> 423 63<467 623.279>
LayerCount: 2
Fore
SplineSet
238 -64 m 1
 238 -4 l 1
 336 52 479 134 524 275 c 1
 378 275 l 25
 378 -59 l 17
 442 -24 492 23 516 51 c 1
 566 51 l 1
 618 -20 l 9
 618 -103 l 1
 608 -103 l 25
 534 -7 l 1
 506 -39 444 -90 366 -123 c 9
 315 -123 l 25
 315 332 l 25
 594 332 l 25
 594 283 l 1
 538 119 370 0 248 -64 c 1
 238 -64 l 1
423 467 m 29
 423 518 l 22
 423 632 382 669 314 669 c 7
 257 669 201.797851562 646.282226562 133.280273438 565.913085938 c 5
 100.719726562 603.086914062 l 5
 171 685 240 726 327 726 c 7
 441.907514101 726 486 667.523599619 486 518 c 14
 486 467 l 29
 423 467 l 29
159 -123 m 5
 96 -123 l 5
 96 722 l 5
 159 722 l 5
 159 -123 l 5
EndSplineSet
Ligature2: "required-ligature-1" z uni2083
EndChar
StartChar: z_3_t_2
Encoding: 65606 -1 96
Width: 1310
VWidth: 1024
Flags: W
HStem: -127 56<688.04 856.534> 279 57<378 524 744 795.717 1133.26 1187.06> 669 57<228.274 381.339>
VStem: 96 63<-123 722> 315 63<-59 275> 423 63<467 623.279> 928 60<-2.43677 166.33> 1068 64<204.887 277.874> 1190 63<199.574 277.772>
LayerCount: 2
Fore
SplineSet
315 332 m 25
 594 332 l 1
 594 283 l 1
 538 119 370 0 248 -64 c 1
 238 -64 l 1
 238 -4 l 1
 336 52 479 134 524 275 c 1
 378 275 l 25
 378 -59 l 17
 442 -24 492 23 516 51 c 1
 566 51 l 1
 621 -15 696 -71 771 -71 c 0
 861 -71 928 -15 928 81 c 0
 928 171 892 210 832 244 c 1
 861 281 l 1
 965 203 988 166 988 81 c 0
 988 -38 904 -127 771 -127 c 0
 668 -127 604 -72 534 -7 c 1
 506 -39 444 -90 366 -123 c 9
 315 -123 l 25
 315 332 l 25
1106 190 m 3
 1168 190 1190 202 1190 240 c 3
 1190 265 1179 279 1160 279 c 3
 1144 279 1132 265 1132 248 c 3
 1132 229 1138 211 1169 195 c 1
 1108 186 l 1
 1081 196 1068 220 1068 253 c 3
 1068 304 1111 336 1160 336 c 3
 1214 336 1253 302 1253 242 c 3
 1253 170 1203 133 1120 133 c 3
 958 133 891 229 744 279 c 25
 744 336 l 1
 754 336 l 25
 883 284 1005 190 1106 190 c 3
423 467 m 25
 423 518 l 18
 423 632 382 669 314 669 c 3
 257 669 201.797851562 646.282226562 133.280273438 565.913085938 c 1
 100.719726562 603.086914062 l 1
 171 685 240 726 327 726 c 3
 441.907514101 726 486 667.523599619 486 518 c 10
 486 467 l 25
 423 467 l 25
159 -123 m 1
 96 -123 l 1
 96 722 l 1
 159 722 l 1
 159 -123 l 1
EndSplineSet
Ligature2: "reverse-too-1" z_3 t_2
EndChar
